<?xml version="1.0" encoding="utf-8"?>
<!-- Generator: Adobe Illustrator 22.0.0, SVG Export Plug-In . SVG Version: 6.00 Build 0)  -->
<svg version="1.1" id="Capa_2_1_" xmlns="http://www.w3.org/2000/svg" xmlns:xlink="http://www.w3.org/1999/xlink" x="0px" y="0px"
	 viewBox="0 0 100 100" style="enable-background:new 0 0 100 100;" xml:space="preserve">
<style type="text/css">
	.st0{opacity:0.9;}
	.st1{fill:#5F0F40;stroke:#5F0F40;stroke-width:0.5;stroke-miterlimit:10;}
	.st2{opacity:0.8;}
	.st3{fill:#5F0F40;stroke:#5F0F40;stroke-miterlimit:10;}
</style>
<g class="st0">
	<path class="st1" d="M36.4,32.1c-1-1.4-3.6-1.9-5.3-1s-2.1,2.8-2.4,4.5c-0.9,5.9-1.2,11.8-0.9,17.8c-2.1-4.7-2.3-9.8-2.3-14.8
		c0-1.8,0-3.6,0.7-5.3c0.6-1.7,1.9-3.3,3.7-4.2c1.9-0.9,4.4-0.8,6,0.5"/>
	<g>
		<path class="st1" d="M36.7,31.9c-2.4-2.6-6.3-2.1-7.8,1c-1.2,2.3-1.2,5.6-1.4,8.1c-0.4,4.1-0.4,8.3-0.3,12.4
			c0.4-0.1,0.9-0.1,1.3-0.2c-1.7-4.3-5.5-29.8,7.1-23.1c0.7,0.4,1.2-0.5,0.7-1c-3.6-2.5-8.2-0.7-10.1,2.7
			c-3.3,5.8-1.2,15.8,1.2,21.6c0.2,0.6,1.3,0.6,1.3-0.2c-0.1-3.3-0.1-6.5,0.1-9.8c0.1-1.5,0.2-3,0.4-4.4c0.1-0.6,0.1-1.2,0.2-1.8
			c-0.3-3.6,2-5.3,6.9-5C36.5,32.7,37.1,32.2,36.7,31.9L36.7,31.9z"/>
	</g>
</g>
<g class="st0">
	<path class="st1" d="M30.2,28.6c0.2-0.7,0.3-1.4,0.2-2.1c-0.8,0.8-1.1,2-0.8,3"/>
	<g>
		<path class="st1" d="M30.2,28.7c0.7-0.2,0.7-1.7,0.7-2.2c0-0.3-0.6-0.6-0.8-0.3c-0.9,0.9-1.5,2.5-0.7,3.6c0.2,0.2,0.6,0.1,0.7-0.1
			c0.1-0.5,0-1,0.1-1.5s0.3-1,0.8-1.5c-0.3,0-0.6-0.1-0.9-0.1c0.1,0.5,0.1,0.9,0.1,1.4C30,28.3,29.9,28.4,30.2,28.7L30.2,28.7
			L30.2,28.7z"/>
	</g>
</g>
<g class="st0">
	<path class="st1" d="M28.9,29.2c-1.2-1.2-2.8-2.1-4.5-2.5c1.2,1.1,2.4,2.2,3.6,3.3"/>
	<g>
		<path class="st1" d="M29.2,29c-0.9-1.6-2.9-2.5-4.6-3c-0.7-0.2-1.1,0.6-0.7,1c0.7,0.6,1.3,1.3,2,1.9c0.6,0.5,1.1,1.2,2,1.4
			c0.3,0.1,0.7-0.2,0.6-0.5c-0.2-0.8-1-1.2-1.5-1.8c-0.7-0.6-1.3-1.3-2.1-1.9c-0.2,0.3-0.4,0.7-0.7,1c1.8,0.4,3.1,1.3,4.5,2.1
			C29,29.6,29.3,29.3,29.2,29L29.2,29z"/>
	</g>
</g>
<g class="st0">
	<path class="st1" d="M35.8,30.6c1,2.4-0.3,5-1.7,7.4c2.3-1.6,3.6-4.1,3.5-6.6"/>
	<g>
		<path class="st1" d="M35.6,30.6c0.4,2.5-0.8,4.9-2,7c-0.3,0.6,0.4,1.1,1,0.7c2.2-1.6,4.1-4.4,3.6-7c-0.1-0.7-1.1-0.7-1.2,0
			c-0.3,2.6-1.1,4.5-3.4,6.2c0.3,0.2,0.7,0.5,1,0.7c1.3-2.5,2.6-5.1,1.3-7.8C36,30.3,35.6,30.4,35.6,30.6L35.6,30.6z"/>
	</g>
</g>
<g class="st0">
	<path class="st1" d="M41.2,31.8C41,33,40.3,34,39,34.7c-0.9,0.5-2,0.7-2.9,1.2C36.1,36,36,36,35.8,36.2c0,0.1,0.2,0.2,0.3,0.1"/>
	<g>
		<path class="st1" d="M41,31.7c-0.3,0.4-0.6,0.9-0.9,1.4c-0.4,0.6-1.1,1-1.8,1.3c-1.1,0.4-2.8,0.6-3.2,1.6c-0.1,0.2,0,0.5,0.2,0.7
			s0.4,0.3,0.7,0.3c0.2,0,0.4-0.1,0.6-0.3c0,0,0,0,0-0.1c0.1-0.2,0.1-0.6-0.2-0.7c-0.1,0.7,0,0.8,0.4,0.5c0.2-0.1,0.4-0.2,0.7-0.3
			c0.3-0.1,0.7-0.3,1-0.4c0.7-0.3,1.2-0.6,1.8-1.1c0.7-0.7,1.5-1.8,1.2-2.8C41.5,31.6,41.2,31.5,41,31.7L41,31.7z"/>
	</g>
</g>
<g class="st0">
	<path class="st1" d="M46.2,30.5c-1.2,2.3-3.5,4.2-6.3,5.2C39,36,38,36.3,37.1,36.1"/>
	<g>
		<path class="st1" d="M46,30.3c-1.4,1.3-2.5,2.7-4.3,3.7c-0.9,0.5-1.9,0.9-2.9,1.1c-1,0.2-1.4,0-2.2,0.6c-0.2,0.1-0.2,0.4-0.1,0.6
			c0.1,0.1,0.1,0.2,0.2,0.3c0.2,0.3,0.6,0.5,0.9,0.4c3.5-0.3,8.3-3.2,8.8-6.5C46.4,30.3,46.2,30.1,46,30.3L46,30.3z"/>
	</g>
</g>
<g class="st0">
	<path class="st1" d="M37.5,36.6c-0.9,0.4-1.4,1.1-1.9,1.8c-2.5,3.7-3.9,8.1-3.6,12.4c0.1-3.1,2-5.9,3.6-8.7
		c1.4-2.3,3.1-4.8,5.8-6.1c-1.2,2.4-1.9,5-2,7.6c0,1,0.1,2.1,1,2.7c0.6-0.9,0.3-1.9,0.3-2.9c0-2.4,0.8-4.7,2.2-6.7"/>
	<g>
		<path class="st1" d="M37.4,36.3c-5.1,2.5-6.3,9.8-6.2,14.4c0,1,1.5,0.9,1.7,0c0.6-4.8,4.5-11.6,9-14.2c-0.3-0.3-0.8-0.5-1.1-0.8
			c-1.3,3-3.7,8.3-0.9,11.1c0.4,0.5,1.3,0.2,1.4-0.4c0.4-1.2,0.3-2.3,0.4-3.6c0.1-2.1,0.9-4,2-5.9c0.4-0.8-0.8-1.5-1.3-0.7
			c-1,1.4-1.8,2.8-2.1,4.4c-0.4,1.8-0.1,3.7-0.7,5.4c0.4-0.1,1-0.2,1.4-0.4c-2.2-2.1,0-7.2,1.1-9.6c0.2-0.6-0.7-1.1-1.1-0.8
			c-5.2,3-9.3,9.9-9.9,15.4c0.6,0,1.1,0,1.7,0c0-4.3,1.1-11,5-14C38,36.5,37.7,36.1,37.4,36.3L37.4,36.3z"/>
	</g>
</g>
<g class="st0">
	<path class="st1" d="M43.2,37.4c2.2,0.5,3.4,2.7,3.1,4.6c-0.3,1.9-1.8,3.5-3.2,5c-2.5,2.5-5.2,4.8-8.2,7c5.4-2.7,9.9-6.7,12.9-11.4
		"/>
	<g>
		<path class="st1" d="M43,37.8c8.5,3.4-5.4,13.2-8.7,15.6c-0.8,0.6,0.2,1.7,1.1,1.3C40.6,52,45.9,48,48.5,43
			c0.4-0.8-0.8-1.4-1.3-0.7c-3.7,4.5-7.2,8.2-12.7,11c0.3,0.4,0.8,0.8,1.1,1.3c3.7-2.9,8.7-6.4,10.8-10.6c1.3-2.8,0.4-6-3-6.9
			C42.8,36.9,42.5,37.6,43,37.8L43,37.8z"/>
	</g>
</g>
<g class="st0">
	<path class="st1" d="M51.8,36.5c-2.1,2-3.1,4.6-4.2,7.1c-3.3,8.4-7.1,16.7-11,24.9c-1.7,3.3-3.3,6.6-5.3,9.8
		c-2.3,3.6-5.1,7-7.7,10.4c-1.8,2.2-3.5,4.4-5.3,6.6"/>
	<g>
		<path class="st1" d="M51.6,36.3c-3.3,3.3-4.6,7.6-6.3,11.7c-2.6,6.2-5.5,12.4-8.5,18.5c-2.4,5-5,9.9-8.3,14.5
			c-3.4,4.8-7.7,9.1-10.9,14c-0.4,0.6,0.6,1.3,1.1,0.8c7.7-7.8,13.9-17.4,18.5-26.9c2.3-4.7,4.5-9.5,6.6-14.3
			c2.5-5.9,4.3-12.7,8.4-17.9C52.4,36.4,51.9,36,51.6,36.3L51.6,36.3z"/>
	</g>
</g>
<g class="st0">
	<path class="st1" d="M54.6,38c-1.9,1-3.1,2.7-4.1,4.4c-1.7,2.8-3,5.8-4,8.9c-0.8,2.4-1.2,4.8-2,7.2c-0.9,2.6-2,5.2-3.2,7.7
		c-5,11.2-10.3,22.7-19.3,32.1"/>
	<g>
		<path class="st1" d="M54.4,37.6c-9,5.4-9.5,19.4-13.2,27.7c-2.6,5.8-5.4,11.7-8.6,17.3c-3.2,5.5-7.2,10.3-11,15.4
			c-0.4,0.6,0.6,1.2,1.1,0.7c8.4-7.3,13.2-18.2,17.6-27.6c2.3-5,4.6-9.9,6.1-15.1c1.7-6.1,3.3-13.4,8.8-17.6
			C55.5,38,54.9,37.3,54.4,37.6L54.4,37.6z"/>
	</g>
</g>
<g class="st0">
	<path class="st1" d="M50.9,41.6c-0.4,1.6,0.2,3.4,1.5,4.5c0.3-1.4,0.7-2.7,1.1-4.1c0.1,0.2,0.1,0.5,0.2,0.7"/>
	<g>
		<path class="st1" d="M50.8,41.4c-0.8,0.4-0.6,1.6-0.4,2.3c0.2,1,0.9,2,1.7,2.7c0.3,0.3,0.9,0.2,1-0.2c0.4-1.4,1-2.8,1.1-4.2
			c-0.4,0.1-0.8,0.2-1.2,0.3c0.1,0.2,0.3,0.4,0.6,0.6c0.2,0.2,0.6,0.1,0.6-0.1c0.1-0.3,0.1-0.5,0.1-0.8c0-0.7-1-0.7-1.2-0.2
			c-0.6,1.3-0.7,2.7-1,4.1c0.3-0.1,0.7-0.2,1-0.2c-0.8-0.6-1.3-1.3-1.5-2.2c-0.2-0.6,0-1.5-0.3-2C51.1,41.4,50.9,41.4,50.8,41.4
			L50.8,41.4z"/>
	</g>
</g>
<g class="st0">
	<path class="st1" d="M52.9,41.3c1.5-0.5,3.3,0.4,4.3,1.5c2,2.4,1.3,5.5,0.6,8.3c-0.9,3.2-1.8,6.3-2.5,9.5c1.1-3,2.3-6,3.4-8.9
		c1.2-3.1,2.4-6.3,2-9.6"/>
	<g>
		<path class="st1" d="M52.9,41.7c9.1-0.3,2.5,15.1,1.5,18.8c-0.2,0.9,1.2,1.3,1.5,0.4c2.3-5.9,5.7-12.3,5.3-18.7
			c-0.1-0.8-1.4-0.8-1.4,0c0.3,6.2-3.2,12.5-5.4,18.3c0.6,0.1,1,0.3,1.5,0.4c1-3.7,7.8-21.8-3.2-19.8C52.5,41.1,52.5,41.7,52.9,41.7
			L52.9,41.7z"/>
	</g>
</g>
<g class="st0">
	<path class="st1" d="M57.1,40.6c2.5,0.9,3.7,3.2,4.4,5.4c1.3,4.3,1.4,8.9,1.4,13.4c1.8-6.6,0.9-13.7-2.4-19.9"/>
	<g>
		<path class="st1" d="M57,40.8c6.1,3.8,5.2,12.8,5.2,18.7c0,0.7,1.3,0.9,1.4,0.2c1.8-7.1,0.7-13.8-2.4-20.4
			c-0.3-0.8-1.8-0.1-1.3,0.7c3.3,6.1,4,12.8,2.3,19.4c0.4,0.1,1,0.1,1.4,0.2c0-5.6,0.8-16.5-6.5-19C57,40.3,56.9,40.6,57,40.8
			L57,40.8z"/>
	</g>
</g>
<g class="st0">
	<path class="st1" d="M56.2,37.6c1.5-0.6,3.4-0.1,4.7,0.8s2,2.3,2.8,3.6c0.7,1.1,1.3,2.3,1.9,3.4c-0.1-3.5-1.8-7-4.6-9.6"/>
	<g>
		<path class="st1" d="M56.3,37.9c5-1.4,7.1,4.7,8.7,7.7c0.3,0.5,1.2,0.2,1.2-0.3c0-1.9-0.4-3.7-1.2-5.5c-0.8-1.5-2-3.8-3.7-4.5
			c-0.3-0.1-0.9,0.1-0.7,0.5c0.6,1.4,2,2.5,2.8,3.9c1,1.8,1.4,3.6,1.7,5.6c0.4-0.1,0.8-0.2,1.2-0.3c-2-3.3-4.5-9.7-10-7.8
			C55.7,37.4,55.8,38,56.3,37.9L56.3,37.9z"/>
	</g>
</g>
<g class="st0">
	<path class="st1" d="M42.6,30.4c0.3-0.2,0.2-0.6,0-0.9c-0.7-1.2-1.9-2.1-3.4-2.5c-1.5-0.4-3.2-0.2-4.5,0.5c0.4-1.2,2.3-1.5,3.7-1.4
		c2.1,0.1,4.4,0.9,5.2,2.6"/>
	<g>
		<path class="st1" d="M42.6,30.4c1-1-0.7-2.6-1.5-3.2c-2-1.4-4.5-1.3-6.7-0.4c0.3,0.3,0.7,0.6,1,0.9c0.8-1.4,3.3-1.2,4.7-0.9
			c0.8,0.2,1.5,0.4,2.1,0.9c0.6,0.4,0.8,0.8,1.3,1.1c0.2,0.1,0.6,0,0.7-0.2c0.4-1.9-2.9-2.9-4.4-3.2c-2-0.3-4.6-0.2-5.6,1.6
			c-0.3,0.6,0.3,1.3,1,0.9c1.4-0.7,3-0.9,4.5-0.4C40.4,27.9,42.9,29.2,42.6,30.4C42.5,30.4,42.6,30.5,42.6,30.4L42.6,30.4z"/>
	</g>
</g>
<g class="st0">
	<path class="st1" d="M38.3,25.1c-0.9-2.1-2.9-3.9-5.3-4.9"/>
	<g>
		<path class="st1" d="M38.5,25.1c0.2-1.2-1.1-2.6-2-3.4c-0.8-0.8-2.4-2.2-3.6-1.9c-0.3,0.1-0.3,0.4-0.2,0.6
			c0.2,0.5,0.8,0.6,1.2,0.9c0.7,0.4,1.2,0.8,1.9,1.3c0.6,0.4,1,0.9,1.3,1.4c0.3,0.4,0.7,1,1.1,1.3C38.3,25.4,38.4,25.3,38.5,25.1
			L38.5,25.1z"/>
	</g>
</g>
<g class="st0">
	<path class="st1" d="M36,22.8c-0.7-0.1-1.1,0.4-1.3,0.9c-0.9,1.6-1.2,3.4-1.1,5.2c-1.8-2.4-1.2-5.4-0.2-8.1
		c0.1-0.3,0.3-0.6,0.7-0.5"/>
	<g>
		<path class="st1" d="M36.1,22.6c-2.6-0.7-3.2,4.9-3.2,6.3c0.4-0.1,0.8-0.2,1.2-0.3c-0.8-1.3-1-2.7-0.9-4.2
			c0.1-0.9,0.2-3.2,1.1-3.9c0.1-0.1,0.1-0.4,0-0.5l-0.1-0.1c-0.2-0.2-0.4-0.2-0.7-0.1c-1.3,0.5-1.4,2.9-1.5,4
			c-0.2,1.9,0,3.7,1.2,5.4c0.3,0.5,1.3,0.3,1.2-0.3c-0.2-1.8-0.1-4.9,1.9-5.9C36.3,22.9,36.3,22.6,36.1,22.6L36.1,22.6z"/>
	</g>
</g>
<g class="st0">
	<path class="st1" d="M33.2,23.6c-2.8-0.2-5.7,0.8-7.4,2.7c-0.2,0.2-0.3,0.6-0.1,0.8"/>
	<g>
		<path class="st1" d="M33.3,23.1c-1.7-0.5-3.7-0.1-5.3,0.6c-1.2,0.5-3.2,1.6-3.2,3c0,0.4,0.3,0.7,0.8,0.7c0.1,0,0.1,0,0.2,0
			c0.2,0,0.4-0.1,0.4-0.3c0.3-1.2,2-1.9,3.1-2.4c1.2-0.5,2.5-0.5,4-0.8C33.7,23.9,33.6,23.3,33.3,23.1L33.3,23.1z"/>
	</g>
</g>
<g class="st0">
	<path class="st1" d="M25,27c-5.8,2.2-6.2,9.6-11.8,12.3c1.1-1.7,2.1-3.4,3.2-5.2c1.3-2.2,2.8-4.4,4.7-6.3c2.3-2.1,5.3-3.6,8.3-5
		c-1.8-0.3-3.5-0.2-5.3,0.3c-1.4,0.5-2.8,1.2-4.2,1.9c-3.3,1.5-6.9,2.5-10.7,2.8c3.2-1.1,6.2-2.4,9-3.9c1.9-1,3.6-2.1,5.6-2.7
		c2.1-0.7,4.5-0.9,6.7-0.6"/>
	<g>
		<path class="st1" d="M24.8,26.6c-6,2.3-6.6,9.1-11.9,12c0.3,0.3,0.7,0.6,1.1,1c2-3.1,3.6-6.5,6.1-9.4c2.5-3.1,6.1-5,9.8-6.8
			c0.8-0.4,0.3-1.2-0.4-1.3c-2.9-0.3-5.2,0.1-7.7,1.3c-4.1,1.8-7.8,3.2-12.3,3.6c0.1,0.5,0.1,1.1,0.2,1.6c7.2-2.5,13.3-7.7,21.3-7.5
			c0.8,0,0.9-1.1,0.2-1.2c-8.3-1.2-15,4.6-22,7.1c-0.9,0.3-0.9,1.7,0.2,1.6c3-0.3,5.7-0.9,8.5-1.9c4-1.5,7.1-3.7,11.6-3.2
			c-0.1-0.4-0.2-0.9-0.4-1.3c-3.4,1.6-6.8,3.4-9.4,6.2c-2.9,3.1-4.8,7-6.9,10.6c-0.3,0.6,0.3,1.3,1.1,1c5.4-3,6.1-9.6,11.6-12.5
			C25.8,27.1,25.4,26.4,24.8,26.6L24.8,26.6z"/>
	</g>
</g>
<g class="st0">
	<path class="st1" d="M37.8,22.5c0.3-2.8-1.2-5.8-3.9-7.6"/>
	<g>
		<path class="st1" d="M38,22.5c1.1-2.6-1-7.1-4-8c-0.3-0.1-0.8,0.3-0.6,0.6c0.9,1.1,2.1,2,2.9,3.2c0.8,1.3,0.9,2.7,1.2,4.2
			C37.7,22.7,38,22.7,38,22.5L38,22.5z"/>
	</g>
</g>
<g class="st0">
	<path class="st1" d="M39.3,20.1"/>
	<g>
		<path class="st1" d="M39.3,20.2c0.1,0,0.1-0.1,0-0.1S39.1,20.2,39.3,20.2L39.3,20.2z"/>
	</g>
</g>
<g class="st0">
	<path class="st1" d="M38.9,21.2c0-4.1-2.9-8.2-7.2-10.3c-0.3-0.2-0.9-0.3-1.1,0"/>
	<g>
		<path class="st1" d="M39.1,21.2c0.6-4.5-3-9.7-7.8-11.2c-0.3-0.1-0.7,0.1-0.9,0.3c-0.1,0.1-0.1,0.2-0.2,0.3
			c-0.2,0.2,0,0.6,0.3,0.7c4.6,1,7.4,6,8.2,9.9C38.8,21.5,39.1,21.4,39.1,21.2L39.1,21.2z"/>
	</g>
</g>
<g class="st0">
	<path class="st1" d="M39.8,20c-1-2.1-1.5-4.4-2.4-6.6C36.5,11.2,35,9,32.5,7.8c-0.3-0.2-0.8-0.2-1,0"/>
	<g>
		<path class="st1" d="M40.1,19.9c-1.2-3.3-1.7-7.1-4.1-10c-0.9-1.1-3.2-3.7-4.7-2.4c-0.2,0.2-0.1,0.7,0.3,0.7
			c2.8-0.1,4.7,4.2,5.5,6.1c0.8,2,1.4,3.9,2.4,5.8C39.7,20.4,40.1,20.2,40.1,19.9L40.1,19.9z"/>
	</g>
</g>
<g class="st0">
	<path class="st1" d="M41.5,16.6C41,15.3,40.1,14,38.9,13c-0.9-0.7-1.8-1.4-2.5-2.1C35.6,10,35.1,9,35.3,8"/>
	<g>
		<path class="st1" d="M41.7,16.6c-0.1-1.5-1.2-2.9-2.3-4c-0.7-0.6-1.4-1.2-2.1-1.8c-0.9-0.9-1-1.9-1.5-2.9
			c-0.1-0.2-0.6-0.3-0.7-0.1c-1.2,1.2,0,2.8,1,3.7c0.8,0.8,1.8,1.3,2.6,2.1c1.1,0.9,1.7,2,2.5,3.1C41.4,16.8,41.7,16.8,41.7,16.6
			L41.7,16.6z"/>
	</g>
</g>
<g class="st0">
	<path class="st1" d="M40.6,15c-1.2-2.1-1.2-4.5-0.2-6.7"/>
	<g>
		<path class="st1" d="M40.8,15c-0.4-1.1-0.7-2.3-0.7-3.5c0-1.1,0.7-2.1,0.6-3.1c0-0.3-0.4-0.5-0.7-0.2c-1,0.7-1,2.3-1,3.4
			c0,1.3,0.6,2.5,1.3,3.6C40.5,15.4,40.9,15.2,40.8,15L40.8,15z"/>
	</g>
</g>
<g class="st0">
	<path class="st1" d="M34.2,20.5c-0.6-1.1-1.2-2.2-2.3-2.8c-2-1.1-4.7-0.4-7.1-0.6c-2.6-0.3-5.1-1.9-5.8-4.1"/>
	<g>
		<path class="st1" d="M34.6,20.4c-1-2.2-2.3-3.6-5.1-3.9c-1.8-0.2-3.6,0.1-5.4-0.3c-2.5-0.6-3.2-2.1-4.8-3.6
			c-0.3-0.3-0.9-0.1-0.9,0.3c-0.1,2.1,2.4,3.8,4.4,4.5c1.5,0.5,3.1,0.4,4.7,0.3c3-0.1,4.7,0.4,6.4,2.9C34.1,21,34.7,20.8,34.6,20.4
			L34.6,20.4z"/>
	</g>
</g>
<g class="st0">
	<path class="st1" d="M36,20.6c-1.7-1-3.1-2.4-4-3.9c-0.4-0.7-0.7-1.5-1.4-2.1c-0.7-0.6-1.7-0.8-2.5-1.2c-2.4-1.2-3.1-3.9-3.5-6.2"
		/>
	<g>
		<path class="st1" d="M36.1,20.5c-1.3-1-2.6-2.2-3.4-3.7c-0.6-0.9-0.9-1.9-1.8-2.6c-1.5-1.2-3.3-1.3-4.4-3.1
			c-0.8-1.3-0.9-2.9-1.7-4.1C24.6,6.7,24,6.8,24,7.1c-0.4,2.3,1,5.1,3,6.5c0.6,0.4,1.2,0.5,1.8,0.8c2.2,1.3,2.3,2.2,3.6,3.8
			c0.9,1.1,2,1.9,3.4,2.6C36.1,20.9,36.3,20.6,36.1,20.5L36.1,20.5z"/>
	</g>
</g>
<g class="st0">
	<path class="st1" d="M33.7,20.5c-0.8-0.9-1.4-1.8-2.2-2.7c-0.3-0.4-0.8-0.9-1.3-1.2c-0.9-0.5-2-0.5-3.1-0.7c-4-0.5-7.6-3-8.9-6.2
		c0.2,2.1,1.2,4,2.2,5.9"/>
	<g>
		<path class="st1" d="M33.9,20.4c-1.7-2.4-2.5-4.4-5.7-5c-4.1-0.9-7.4-2.4-9.3-6c-0.4-0.8-1.7-0.2-1.5,0.6c0.4,2.1,1.2,4.3,2.8,5.9
			c0.3,0.3,0.7,0,0.7-0.3c-0.3-2-1.5-3.7-1.8-5.8c-0.6,0.1-1,0.3-1.5,0.4c1.2,2.5,3.4,4.5,6.2,5.6c1.1,0.5,2.3,0.6,3.5,0.9
			c1.5,0.3,2.8,0.6,4,1.6c0.9,0.7,1.7,1.7,2.4,2.5C33.7,20.7,34,20.6,33.9,20.4L33.9,20.4z"/>
	</g>
</g>
<g class="st0">
	<path class="st1" d="M25.5,7.6c0.6,1.8,1.9,3.5,3.7,4.6c2.5,1.5,6.1,2.1,7.4,4.4"/>
	<g>
		<path class="st1" d="M25.3,7.6c-0.2,2.1,2.1,4.2,3.9,5.2c1.2,0.7,2.5,1.2,3.9,1.8c1.3,0.6,2.2,1.5,3.4,2.3
			c0.3,0.2,0.8-0.1,0.7-0.4c-0.4-1.9-3.1-2.7-4.8-3.5c-1.3-0.5-2.5-1.1-3.6-1.9c-1.3-1-1.9-2.4-2.9-3.6C25.5,7.4,25.3,7.4,25.3,7.6
			L25.3,7.6z"/>
	</g>
</g>
<g class="st0">
	<path class="st1" d="M35.6,12c-0.9-1.3-2.2-2.3-3.7-2.8"/>
	<g>
		<path class="st1" d="M36,12c-0.2-0.8-0.8-1.4-1.5-1.9C33.7,9.6,32.9,9,32,8.8c-0.6-0.1-0.9,0.5-0.4,0.8c0.7,0.4,1.5,0.6,2.2,1.1
			c0.6,0.4,1.1,1,1.7,1.4C35.6,12.4,36,12.2,36,12L36,12z"/>
	</g>
</g>
<g class="st0">
	<path class="st1" d="M43.7,15.1c-0.1-2-1.1-3.9-2.8-5.2c-1.2-0.9-2.6-1.6-3.7-2.6"/>
	<g>
		<path class="st1" d="M44,15.1c0.1-1.8-0.3-3.4-1.7-4.9c-1.1-1.3-3.2-2.8-4.8-3.6c-0.7-0.3-1.3,0.3-1,0.9c0.9,1.4,2.8,2,4,3
			c1.4,1.2,2.4,2.9,2.9,4.6C43.4,15.5,44,15.4,44,15.1L44,15.1z"/>
	</g>
</g>
<g class="st0">
	<path class="st1" d="M42.8,12.3c-1.3-1.2-1.4-3-1.2-4.5c0.1-1.6,0.6-3.3,0.1-4.8c-0.2,0-0.6,0.1-0.7,0.3"/>
	<g>
		<path class="st1" d="M43.1,12.1c-2.1-2.8,0-6.2-0.8-9.3c-0.1-0.4-0.7-0.6-1-0.4c-0.4,0.2-0.6,0.3-0.7,0.8
			c-0.1,0.3,0.2,0.5,0.4,0.4c0.2,0,0.3,0,0.6-0.1C41.5,3.3,41.2,3.2,41,3c0.7,3.2-1.3,6.8,1.5,9.4C42.8,12.7,43.3,12.4,43.1,12.1
			L43.1,12.1z"/>
	</g>
</g>
<g class="st0">
	<path class="st1" d="M44,13.4c-1.1-1.1-0.9-2.7-0.6-4.1c0.3-1.4,0.3-3.1-1-4"/>
	<g>
		<path class="st1" d="M44.2,13.2c-1.5-2.1,1.9-7.2-1.8-8.3c-0.4-0.1-0.8,0.3-0.6,0.7c0.6,0.8,1,1.4,1,2.4c0,0.8-0.2,1.5-0.3,2.3
			c-0.1,1.3,0.1,2.4,1.1,3.4C44,13.8,44.4,13.5,44.2,13.2L44.2,13.2z"/>
	</g>
</g>
<g class="st0">
	<path class="st1" d="M45.5,13.6c-0.7-1.4-1.1-2.8-1.4-4.3c0,0.2,0,0.3,0.1,0.5"/>
	<g>
		<path class="st1" d="M45.9,13.5c-0.6-1.4-0.7-2.9-1.1-4.3c-0.2-0.8-1.7-0.3-1.1,0.4c0.1,0.1,0.1,0.3,0.2,0.4
			c0.2,0.3,0.7,0.2,0.8-0.1c0-0.1,0.1-0.3,0.1-0.4c-0.4-0.1-0.9-0.1-1.2-0.2c0.1,1.5,1,3.1,1.8,4.4C45.4,14.1,46,13.9,45.9,13.5
			L45.9,13.5z"/>
	</g>
</g>
<g class="st0">
	<path class="st1" d="M45.3,12.4c-0.1-0.9-0.1-1.8,0.1-2.7"/>
	<g>
		<path class="st1" d="M45.9,12.4c0-0.5,0-1.1,0-1.6c0-0.4,0.1-0.9-0.2-1.3c-0.1-0.1-0.2-0.2-0.4-0.1c-1,0.5-0.7,2.2-0.6,3.1
			C45,13,46,12.9,45.9,12.4L45.9,12.4z"/>
	</g>
</g>
<g class="st0">
	<path class="st1" d="M46.4,11.5c0-0.7-0.1-1.3-0.4-1.9c0,0.2,0,0.3,0,0.5"/>
	<g>
		<path class="st1" d="M46.9,11.5c0.1-0.7,0-1.9-0.8-2.3c-0.4-0.2-0.9,0.3-0.6,0.6c0.1,0.1,0.1,0.2,0.2,0.3c0.1,0.2,0.3,0.1,0.4,0
			c0-0.1,0.1-0.2,0.1-0.3c-0.2-0.1-0.6-0.2-0.8-0.3c-0.1,0.3,0,0.6,0.1,0.9c0.1,0.4,0.2,0.7,0.2,1.1C45.9,12.1,46.9,12.1,46.9,11.5
			L46.9,11.5z"/>
	</g>
</g>
<g class="st0">
	<path class="st1" d="M46.3,11.5c0.4-0.5,0.8-1.1,0.8-1.7c0.2,0.3,0.6,0.6,0.8,0.8c0-0.4,0-0.8,0.1-1.2c0,0.7,1,1.2,1.7,0.8
		c-1.2-1-2.3-2.2-3-3.5C46,5.4,45.9,4,46.5,2.6"/>
	<g>
		<path class="st1" d="M46.3,11.6c0.8-0.7,1.2-0.7,1.2-1.7c-0.2,0.1-0.4,0.2-0.7,0.3c0.3,0.2,0.6,0.4,0.9,0.6c0.1,0.1,0.3,0.1,0.3,0
			c0.3-0.6,0.3-0.6,0.3-1.3c-0.3,0-0.7,0.1-1,0.1c0.4,0.9,1.2,1.3,2.3,1.1c0.2,0,0.4-0.3,0.3-0.5c-0.6-1.2-1.7-2-2.3-3.1
			c-1-1.6-0.4-3-0.9-4.7c-0.1-0.2-0.4-0.4-0.7-0.2c-3.1,2,0.3,7.7,3.2,8.5c0-0.3,0-0.5,0-0.8c-0.3-0.1-0.7-0.3-1-0.4
			c0-0.6-1-0.6-1,0c0,0.7,0,0.6,0.2,1.2c0.1-0.1,0.3-0.1,0.4-0.2c-0.2-0.3-0.4-0.6-0.7-0.9c-0.2-0.3-0.7-0.2-0.8,0.1
			c-0.1,0.5-0.2,1.3-0.4,1.7C46.1,11.6,46.3,11.7,46.3,11.6L46.3,11.6z"/>
	</g>
</g>
<g class="st0">
	<path class="st1" d="M46.4,3.8c2.1,3.1,3.7,6.4,5,9.8"/>
	<g>
		<path class="st1" d="M46.2,3.9c1,1.7,2,3.4,2.8,5.1c0.7,1.5,1.1,3.3,2.1,4.7c0.1,0.2,0.6,0.2,0.6-0.1c-0.1-1.6-1-3.1-1.8-4.5
			c-1-1.9-2.1-3.6-3.3-5.4C46.5,3.4,46.1,3.6,46.2,3.9L46.2,3.9z"/>
	</g>
</g>
<g class="st0">
	<path class="st1" d="M51.8,12.5c0-1,0-2,0-3c0.1,0.5,0.2,1,0.6,1.4c0.2-0.5,0.2-1,0-1.4c0.4,0.6,0.8,1.2,1.2,1.8"/>
	<g>
		<path class="st1" d="M52.2,12.5c0-1,0.1-2,0.1-3c-0.3,0-0.6,0-0.9,0c0.1,0.6,0.2,1.1,0.6,1.6c0.2,0.4,0.8,0.2,0.9-0.1
			c0.2-0.6,0.2-1.1,0-1.7c-0.3,0.1-0.7,0.3-1,0.4c0.4,0.6,0.9,1.4,1.5,1.8c0.2,0.1,0.6,0,0.6-0.3c-0.1-0.7-0.7-1.4-1.1-2.1
			c-0.3-0.6-1.2-0.1-1,0.5c0.2,0.3,0.1,0.7,0,1c0.3,0,0.7-0.1,0.9-0.1c-0.3-0.4-0.4-0.8-0.6-1.3c-0.1-0.4-0.9-0.3-0.9,0.1
			c0,1,0.1,2,0.1,3C51.6,12.9,52.2,12.9,52.2,12.5L52.2,12.5z"/>
	</g>
</g>
<g class="st0">
	<path class="st1" d="M54,11.6c0-0.3,0-0.6,0.1-0.9c0.2,0.7,0.6,1.3,1.2,1.8"/>
	<g>
		<path class="st1" d="M54.5,11.7c0-0.3,0.1-0.6,0.1-0.9c-0.3,0-0.6,0-0.9,0c0.1,0.7,0.8,2.1,1.7,2c0.1,0,0.2-0.1,0.2-0.2
			c0.1-0.4-0.2-0.6-0.4-0.9c-0.2-0.4-0.4-0.7-0.7-1.1c-0.2-0.4-0.9-0.4-0.9,0.1c0,0.3,0,0.6,0,0.9C53.7,12,54.4,12.1,54.5,11.7
			L54.5,11.7z"/>
	</g>
</g>
<g class="st0">
	<path class="st1" d="M55.5,11.8c-0.1-0.4,0.8-0.5,1.1-0.1c0.1,0.1,0.1,0.2,0.3,0.3c0.1,0,0.3-0.1,0.2-0.2c0.1,0.1,0.2,0.3,0.2,0.4"
		/>
	<g>
		<path class="st1" d="M55.9,11.8c0,0,0.1,0,0.2,0c0.1,0,0.1,0.1,0.2,0.2c0.1,0.2,0.3,0.3,0.6,0.3c0.4,0,0.7-0.4,0.4-0.7
			c-0.2,0.1-0.3,0.2-0.6,0.3c0.1,0.2,0.2,0.3,0.4,0.4c0.2,0.1,0.4,0,0.4-0.2s-0.1-0.3-0.2-0.5c-0.1-0.3-0.8-0.1-0.7,0.2
			c0.2-0.1,0.3-0.2,0.1-0.4l-0.1-0.1c-0.1-0.1-0.1-0.1-0.2-0.2C56.3,11,56.1,11,55.9,11c-0.4,0-0.9,0.3-0.9,0.7
			C55,12.3,55.9,12.3,55.9,11.8L55.9,11.8z"/>
	</g>
</g>
<g class="st0">
	<path class="st1" d="M57.4,12.1c-0.8-1-0.8-2.3-0.3-3.4c0.4-1.1,1.2-2.1,2-3.1C59.8,4.8,60.3,4,61,3.2c-0.8,1.4-1.3,2.8-1.9,4.2
		c-0.3,0.9-0.6,2,0,2.8"/>
	<g>
		<path class="st1" d="M57.9,11.9C56.2,8.7,60,6,61.4,3.4c-0.3-0.1-0.7-0.3-1-0.4c-1,2.1-3,5.1-1.7,7.3c0.2,0.3,0.8,0.1,0.7-0.2
			c-0.8-2.1,0.9-4.8,2-6.7c0.3-0.5-0.4-1-0.9-0.6c-2.3,2.3-5.8,6.3-3.4,9.5C57.4,12.7,58.1,12.3,57.9,11.9L57.9,11.9z"/>
	</g>
</g>
<g class="st0">
	<path class="st1" d="M59.5,7.7C60,7,60.4,6.4,60.9,5.8c0,1.2-0.3,2.5-1.1,3.6c0.6-0.2,0.9-0.6,0.8-1c-1,0.6-1.5,1.5-1.8,2.5
		c0.3,0,0.6-0.2,0.7-0.5c-0.4,0.4,0.2,1,0.7,1.5c0.6,0.6,0.9,1.3,0.9,2.1"/>
	<g>
		<path class="st1" d="M59.8,7.8c0.4-0.6,0.9-1.2,1.4-1.8c-0.2-0.1-0.4-0.2-0.7-0.3c0,1.3-0.6,2.4-1,3.6c-0.1,0.3,0.3,0.5,0.6,0.3
			C60.5,9.3,60.8,9,61,8.5c0.2-0.4-0.2-0.7-0.7-0.4c-1,0.7-1.7,1.5-1.9,2.6c-0.1,0.3,0.3,0.6,0.7,0.4c0.6-0.2,0.4-0.1,0.8-0.5
			c-0.2-0.1-0.4-0.2-0.7-0.4c-0.2,0.5-0.1,0.7,0.2,1.2c0.6,0.9,1.2,1.4,1.4,2.5c0.1,0.3,0.6,0.2,0.7-0.1c0.1-0.5,0-1-0.2-1.5
			s-1.4-1.5-1.2-2c0.1-0.3-0.4-0.6-0.7-0.4c-0.2,0.1-0.3,0.2-0.6,0.3c0.2,0.2,0.3,0.3,0.6,0.5c0.2-1,0.8-1.7,1.5-2.3
			c-0.2-0.1-0.4-0.2-0.7-0.2c-0.2,0.2-0.3,0.5-0.6,0.7c0.1,0.2,0.2,0.3,0.3,0.5c1.1-1.1,1.3-2.5,1.2-3.9c0-0.3-0.6-0.5-0.8-0.2
			c-0.3,0.7-0.8,1.3-1.2,2C59.1,7.8,59.5,8,59.8,7.8L59.8,7.8z"/>
	</g>
</g>
<g class="st0">
	<path class="st1" d="M61.6,13.6c-0.6-1.2,0.7-2.7,2.2-2.7c0.4,0,0.8,0.1,1.2,0c0.9-0.2,1.3-1,1.5-1.7"/>
	<g>
		<path class="st1" d="M62,13.5c-0.2-0.6,0.1-1.3,0.7-1.7c0.7-0.6,1.4-0.3,2.2-0.4c1.2-0.1,1.8-1,2.2-1.9c0.1-0.2,0-0.4-0.1-0.5
			c0,0,0-0.1-0.1-0.1c-0.1-0.1-0.2-0.1-0.4-0.1c-0.9,0.2-0.7,1.3-1.5,1.6c-0.4,0.1-0.9,0-1.3,0c-0.3,0.1-0.7,0.2-1,0.3
			c-1.2,0.6-1.8,1.9-1.2,3C61.4,14.1,62.1,13.9,62,13.5L62,13.5z"/>
	</g>
</g>
<g class="st0">
	<path class="st1" d="M63.1,13.8c0.3-2.3,3.7-3.8,3.6-6.1c0-0.7-0.3-1.3-0.4-2c-0.1-0.7,0.3-1.5,1.1-1.6"/>
	<g>
		<path class="st1" d="M63.3,13.8c0.7-1.8,2.5-2.8,3.5-4.4c0.9-1.6-0.4-3.8,0.9-5.1c0.2-0.2,0.1-0.7-0.3-0.7c-2.5,0-1.3,2.9-1.3,4.2
			c-0.1,2.3-2.9,3.6-3.1,6C62.8,14,63.2,14,63.3,13.8L63.3,13.8z"/>
	</g>
</g>
<g class="st0">
	<path class="st1" d="M68,5.3c-2.1,3-0.7,7.2-3.4,9.8"/>
	<g>
		<path class="st1" d="M67.8,5.2c-1.2,1.4-1.4,3-1.9,4.7c-0.3,1.9-1.2,3.3-1.9,5.1c-0.1,0.3,0.3,0.6,0.7,0.4c1.5-0.7,2-2.6,2.2-4.1
			c0.3-2,0.3-4.1,1.2-6C68.2,5.2,67.9,5.1,67.8,5.2L67.8,5.2z"/>
	</g>
</g>
<g class="st0">
	<path class="st1" d="M66.6,12.4c-0.2,0.8-0.6,1.7-0.8,2.5c0.2-0.2,0.4-0.4,0.8-0.5c0.3,0.2,0.7,0.4,1,0.6"/>
	<g>
		<path class="st1" d="M66.3,12.3c-0.3,0.8-0.7,1.7-0.9,2.5c-0.1,0.3,0.4,0.7,0.7,0.4c0.2-0.2,0.4-0.3,0.7-0.5c-0.1,0-0.2,0-0.4,0
			c0.3,0.2,0.7,0.5,1.1,0.6c0.2,0,0.4-0.2,0.3-0.3c-0.2-0.4-0.7-0.6-1-0.8c-0.1,0-0.2-0.1-0.3,0c-0.3,0.1-0.7,0.3-1,0.6
			c0.2,0.1,0.4,0.2,0.7,0.4c0.3-0.8,0.4-1.7,0.7-2.6C66.9,12.1,66.4,12,66.3,12.3L66.3,12.3z"/>
	</g>
</g>
<g class="st0">
	<path class="st1" d="M67.7,15c1-1.3,2-2.5,2.9-3.8c0.4-0.5,0.8-1.1,0.6-1.7c-0.1,2.3-0.6,4.6-1.4,6.8"/>
	<g>
		<path class="st1" d="M67.8,15.2c1.4-1.4,4.2-3.6,4-5.7c-0.1-0.8-1.3-0.8-1.3,0c-0.1,1.3-0.2,2.5-0.6,3.8c-0.2,1-0.8,2-0.8,3
			c0,0.5,0.8,0.6,1,0.3c1.4-1.8,1.5-4.9,1.7-7.1c-0.4,0-0.9,0-1.3,0c0.1,1.1-1.1,2-1.7,2.9c-0.6,0.8-1,1.7-1.4,2.5
			C67.3,15.1,67.7,15.4,67.8,15.2L67.8,15.2z"/>
	</g>
</g>
<g class="st0">
	<path class="st1" d="M69,16.3c-0.4-0.5,0.3-1.3,1.1-1.3s1.3,0.6,1.8,1.2"/>
	<g>
		<path class="st1" d="M69.5,16.1c-0.1-0.4,0.4-0.5,0.8-0.4c0.2,0.1,0.4,0.2,0.7,0.4c0.2,0.2,0.4,0.3,0.7,0.4
			c0.3,0.2,0.8-0.1,0.7-0.5c-0.1-0.6-0.4-1-1-1.3c-0.4-0.3-1.1-0.5-1.8-0.3c-1,0.2-1.9,1.4-1,2.2C69,16.9,69.7,16.6,69.5,16.1
			L69.5,16.1z"/>
	</g>
</g>
<g class="st0">
	<path class="st1" d="M71,16.5c0-0.4,0.2-0.8,0.7-1.1"/>
	<g>
		<path class="st1" d="M71.6,16.5c0-0.4,0.4-0.6,0.6-1c0.1-0.2-0.1-0.4-0.3-0.4C71,15,70.7,16,70.7,16.5
			C70.6,17,71.6,17.1,71.6,16.5L71.6,16.5z"/>
	</g>
</g>
<g class="st0">
	<path class="st1" d="M71,16.1c0.4-1.2,1.3-2.3,2.6-2.9c0.7-0.3,1.3-0.5,1.9-0.9c1.5-1,2.2-2.9,4.1-3.4c-2.1,3.3-4.7,6.4-7.7,9.2"/>
	<g>
		<path class="st1" d="M71.3,16.3c1-2.2,3.1-2.4,5-3.7c1.3-1,2-2.6,3.6-3.2c-0.2-0.2-0.6-0.5-0.8-0.7c-2.1,3.4-4.8,6.2-7.5,9.2
			c-0.3,0.4,0.2,1,0.7,0.6c3.2-2.6,5.6-6,7.8-9.3c0.2-0.4-0.2-0.9-0.7-0.8c-2,0.7-2.8,2.6-4.5,3.6c-2.1,1.2-3.5,1.8-4.3,4.1
			C70.6,16.4,71.2,16.6,71.3,16.3L71.3,16.3z"/>
	</g>
</g>
<g class="st0">
	<path class="st1" d="M71.9,17.9c0.3-0.3,0.6-0.6,0.9-0.8c-0.1,0.5-0.2,0.9-0.3,1.4"/>
	<g>
		<path class="st1" d="M72.3,18.3c0.3-0.3,0.7-0.6,1-1c-0.3-0.1-0.7-0.2-1.1-0.3c0,0.5-0.2,1-0.1,1.5c0.1,0.2,0.3,0.3,0.6,0.1
			c0.3-0.4,0.4-1,0.7-1.5c0.2-0.5-0.6-0.8-1-0.5c-0.3,0.2-0.7,0.6-0.9,0.8C70.9,18.1,71.8,18.8,72.3,18.3L72.3,18.3z"/>
	</g>
</g>
<g class="st0">
	<path class="st1" d="M72.3,19.2c0.8-1.7,2.6-2.9,4.7-3.2c1-0.2,2.4-0.3,2.6-1.1c-1.1,2.2-3.2,4-5.7,5.1"/>
	<g>
		<path class="st1" d="M72.7,19.3c1.2-1.6,2.6-2.5,4.7-2.9c1.2-0.2,2.3-0.4,2.8-1.5c0.2-0.5-0.8-0.9-1-0.4c-0.6,1.1-1.4,2.2-2.4,3
			c-1,0.8-2.3,1.3-3.1,2.1c-0.2,0.2-0.1,0.5,0.2,0.5c1.3-0.1,2.5-1,3.4-1.8c1.2-0.9,2.1-2.1,2.8-3.3c-0.3-0.2-0.7-0.3-1-0.5
			c-0.3,0.8-1.5,0.7-2.3,0.8s-1.5,0.4-2.3,0.8c-1.2,0.7-2.2,1.6-2.6,2.9C71.9,19.5,72.4,19.7,72.7,19.3L72.7,19.3z"/>
	</g>
</g>
<g class="st0">
	<path class="st1" d="M73.5,20.5c0.3-0.6,1.2-1.1,2-1.2c0.2,0,0.4,0,0.6,0.1s0.1,0.4-0.1,0.4"/>
	<g>
		<path class="st1" d="M73.8,20.6c0.2-0.3,0.6-0.6,0.9-0.8c0.1-0.1,0.3-0.1,0.6-0.2c0,0,1-0.1,0.8,0.1c-0.1,0.1,0.1,0.2,0.2,0.2
			c0.3,0,0.4-0.3,0.4-0.5C76.5,19,76,19,75.6,19c-1,0.1-1.9,0.6-2.3,1.3C73.1,20.7,73.5,20.9,73.8,20.6L73.8,20.6z"/>
	</g>
</g>
<g class="st0">
	<path class="st1" d="M75.4,20.1c1-1.8,3.7-2.9,6.1-2.3"/>
	<g>
		<path class="st1" d="M75.7,20.3c0.7-0.9,1.9-1.6,3-1.9c0.6-0.1,1.1-0.2,1.7-0.1c0.6,0,0.9,0.2,1.3-0.1c0.2-0.1,0.2-0.3,0.1-0.5
			c-0.7-1-2.9-0.5-3.9-0.1c-1.3,0.5-2.2,1.4-2.8,2.6C75.1,20.4,75.5,20.5,75.7,20.3L75.7,20.3z"/>
	</g>
</g>
<g class="st0">
	<path class="st1" d="M81.5,18.1c0.3-0.1,0.7-0.2,1.1-0.3c-1.8,1.6-4.1,2.7-6.7,3.1c1.1,0.8,2.8,0.9,4.1,0.3c-0.1,0.1-0.4,0.2-0.6,0
		c0.3,0.1,0.7,0.3,0.9,0.5"/>
	<g>
		<path class="st1" d="M81.6,18.4c0.3,0,0.8-0.1,1.1-0.1c-0.1-0.3-0.3-0.5-0.4-0.8c-1.9,1.5-4,2.5-6.5,2.8c-0.7,0.1-0.6,0.8-0.1,1.1
			c1.1,0.7,4,1.5,4.6,0c-0.1-0.1-0.2-0.3-0.3-0.4h-0.1c-0.1,0.2-0.3,0.5-0.4,0.7c0.2,0.1,0.6,0.2,0.8,0.3c0.2,0.1,0.6-0.1,0.4-0.3
			c-0.1-0.5-0.4-0.7-1-0.9c-0.7-0.2-0.9,0.9-0.1,0.9c0.4,0,0.4,0,0.8-0.3c0.2-0.1,0.1-0.4-0.1-0.5c-0.6-0.2-1,0-1.5,0
			c-0.9,0-1.5-0.2-2.2-0.6c0,0.4-0.1,0.7-0.1,1.1c2.6-0.5,5.1-1.5,6.8-3.3c0.4-0.4-0.1-0.9-0.7-0.7c-0.3,0.1-0.7,0.3-1,0.4
			C80.9,18,81.3,18.4,81.6,18.4L81.6,18.4z"/>
	</g>
</g>
<g class="st0">
	<path class="st1" d="M80.3,21.5c2.8,0.4,5.5,0.2,8.2-0.3c0,0.5-0.7,0.7-1.2,0.8c-2,0.6-4,1.1-6,1.7c-1.2,0.3-2.5,0.7-3.2,1.6
		c-0.2,0.2-0.3,0.5-0.7,0.7c-0.2,0.2-0.7,0.3-1,0.5c-1.3,0.4-2.5,0.9-3.9,1.3"/>
	<g>
		<path class="st1" d="M80.1,22c2.9,0.5,5.6,0.3,8.5-0.2c-0.2-0.3-0.6-0.6-0.8-0.9c-0.8,1.1-4.2,1.5-5.6,1.9
			c-1.2,0.3-2.5,0.6-3.5,1.2c-1.1,0.6-1.9,1.5-3,2s-2.4,0.8-3.5,1.3c-0.8,0.3-0.2,1.4,0.6,1.2c1.4-0.4,3.1-0.8,4.4-1.4
			c1.4-0.6,2.3-1.9,3.9-2.5c2.4-1,6.4-0.9,8-3c0.3-0.5-0.2-1-0.8-0.9c-2.6,0.5-5.2,0.6-7.9,0.5C79.7,21,79.5,21.9,80.1,22L80.1,22z"
			/>
	</g>
</g>
<g class="st0">
	<path class="st1" d="M71.9,28.2c-0.2-0.1-0.1-0.3,0-0.4c3,1.1,5.8,2.2,8.8,3.3c-1.5-0.8-3.5-0.6-5.3-0.4c-1.2,0.1-2.5,0.3-3.7,0.4
		c-1.9,0.2-4.1,0.5-5.2,1.8"/>
	<g>
		<path class="st1" d="M72.2,28.2c0,0.9,7.1,3,8.2,3.5c0.9,0.3,1.7-0.8,0.8-1.1c-2.8-1.1-5.6-0.6-8.5-0.3c-2.4,0.3-4.8,0.4-6.7,2.1
			c-0.8,0.7,0.4,1.8,1.2,1.1c1.7-1.6,4.2-1.6,6.5-1.8c2.2-0.3,4.6-0.8,6.8,0.1c0.2-0.4,0.3-0.8,0.6-1.2c-3-1-6-2.1-8.9-3.1
			c-0.2-0.1-0.6,0.1-0.7,0.3c0,0.1,0,0.2,0,0.2c0,0.1,0,0.3,0.1,0.4c0.1,0,0.1,0.1,0.2,0.1C71.9,28.6,72.2,28.5,72.2,28.2L72.2,28.2
			z"/>
	</g>
</g>
<g class="st0">
	<path class="st1" d="M75.4,28.6c-0.3-0.8,0.8-1.4,1.7-1.6c2.3-0.3,4.7,0.7,6.8-0.2c0.2-0.1,0.3-0.2,0.6-0.1
		c0.2,0.1,0.1,0.4-0.1,0.3"/>
	<g>
		<path class="st1" d="M75.7,28.6c0-1.7,4.2-0.9,5.2-0.9c0.7,0.1,1.3,0.1,2,0c0.8-0.1,1.1-0.1,1.2-0.7c0,0.1,0.1,0.3,0.2,0.3h0.1
			c0.3,0.1,0.6-0.1,0.7-0.3c0-0.1,0-0.1,0.1-0.2c0.1-0.4-0.2-0.8-0.7-0.8c-1.1,0-2.1,0.5-3.3,0.4c-1.2-0.1-2.5-0.3-3.7-0.1
			c-1.3,0.2-2.6,0.9-2.2,2.3C75.2,28.9,75.7,28.9,75.7,28.6L75.7,28.6z"/>
	</g>
</g>
<g class="st0">
	<path class="st1" d="M67.4,28.5c1.1-0.6,2.2-1.2,3.3-1.8c-0.8,1.2-1.8,2.2-3,3"/>
	<g>
		<path class="st1" d="M67.5,28.9c1.2-0.5,2.3-1.1,3.4-1.7c-0.2-0.2-0.4-0.5-0.5-0.7c-0.5,0.6-1,1.2-1.5,1.8
			c-0.5,0.4-1.2,0.7-1.4,1.4c-0.1,0.2,0.1,0.4,0.3,0.4c0.6,0,1.2-0.7,1.6-1.1c0.5-0.6,1.1-1.2,1.6-1.9c0.3-0.4-0.1-1-0.5-0.7
			c-1.1,0.6-2.2,1.2-3.2,1.9C66.9,28.4,67.1,29,67.5,28.9L67.5,28.9z"/>
	</g>
</g>
<g class="st0">
	<path class="st1" d="M67.6,29.5c0.5-0.2,1-0.4,1.4-0.4c0.2,0,0.4,0,0.5,0.1c0.1,0.1,0.1,0.4-0.1,0.4"/>
	<g>
		<path class="st1" d="M67.7,29.9c0.3-0.1,0.5-0.2,0.9-0.3c0.2,0,0.4-0.1,0.5,0c0.1,0,0.1,0,0.2,0c0.1,0.1,0.2,0.1,0.1,0
			c-0.1,0.2,0,0.3,0.2,0.4c0.6,0,0.6-1,0.2-1.3c-0.6-0.4-1.7,0.1-2.3,0.4C67,29.3,67.3,30.1,67.7,29.9L67.7,29.9z"/>
	</g>
</g>
<g class="st0">
	<path class="st1" d="M69,29.9c-0.5-0.2-1,0.2-1.1,0.7c0,0.5,0.5,0.9,0.9,0.8c0.5-0.1,0.7-0.7,0.5-1.1"/>
	<g>
		<path class="st1" d="M69.1,29.5c-1.1-0.4-2.2,1.2-1.1,2c0.9,0.6,2.3-0.4,1.5-1.5c-0.2-0.2-0.5-0.1-0.4,0.2
			c0.1,0.4-0.2,0.8-0.5,0.6c-0.5-0.3-0.1-0.7,0.4-0.6C69.4,30.4,69.5,29.7,69.1,29.5L69.1,29.5z"/>
	</g>
</g>
<g class="st0">
	<path class="st1" d="M68.8,30.1c-0.3,0-0.1,0.4,0.1,0.6c2.2,1.4,4.6,2.2,7.1,2.3c-2.2,0.4-4.4,0.4-6.7,0.1c0.1,0,0.1,0,0.2,0"/>
	<g>
		<path class="st1" d="M68.7,29.8l-0.1,0.1c-0.1,0.1-0.2,0.2-0.2,0.4c0.2,1.1,1.9,1.6,2.6,2c1.6,0.7,3.2,1.1,5,1.2
			c0-0.3-0.1-0.7-0.1-1c-2.3,0.4-4.3,0.2-6.6,0.2c0.1,0.3,0.2,0.6,0.2,0.9l0.1-0.1c0.2-0.1,0.2-0.5,0-0.6l-0.1-0.1
			c-0.5-0.4-0.9,0.7-0.4,0.9c2.2,0.5,4.6,0.2,6.8-0.1c0.5-0.1,0.6-1,0-1c-1.3-0.1-2.5-0.4-3.8-0.8c-0.5-0.2-3.2-1.4-3.2-1.4
			C69.2,30,68.9,29.7,68.7,29.8L68.7,29.8z"/>
	</g>
</g>
<g class="st2">
	<path class="st3" d="M70.3,33.2c0.7,0.4,1.4,0.7,2.2,1.1c0.1,0,0.1,0.1,0.2,0.1"/>
	<g>
		<path class="st3" d="M70.1,33.5c0.5,0.2,0.9,0.5,1.3,0.7c0.4,0.2,0.7,0.4,1.2,0.4c0.2,0,0.3-0.2,0.2-0.4c-0.3-0.4-0.5-0.6-1-0.7
			c-0.5-0.2-1-0.4-1.4-0.6C70,32.7,69.8,33.4,70.1,33.5L70.1,33.5z"/>
	</g>
</g>
<g class="st2">
	<path class="st3" d="M71.2,34c0.5,0.3,1,0.6,1.4,0.9"/>
	<g>
		<path class="st3" d="M71,34.3c0.5,0.3,1,0.6,1.5,0.8c0.2,0.1,0.4-0.2,0.2-0.4c-0.5-0.4-1-0.7-1.4-1C71,33.6,70.7,34.1,71,34.3
			L71,34.3z"/>
	</g>
</g>
<g class="st0">
	<path class="st1" d="M86.5,34.7c2.9,1.6,5.7,3.2,8.6,4.7c-6.1-0.9-11.8-3.1-16.6-6.3"/>
	<g>
		<path class="st1" d="M86.3,35c2.8,1.7,5.6,3.3,8.6,4.9c0.1-0.3,0.2-0.6,0.4-0.9c-6.1-0.9-11.5-3.2-16.4-6.4
			c-0.8-0.5-1.4,0.6-0.7,1.1c5.1,3.3,10.8,5.1,16.9,6.2c0.6,0.1,1-0.6,0.4-0.9c-2.9-1.6-5.7-3.2-8.7-4.6C86.3,34.2,86,34.7,86.3,35
			L86.3,35z"/>
	</g>
</g>
<g class="st0">
	<path class="st1" d="M77.6,32.4c0,0.2,0.1,0.3,0.1,0.5c-0.6,0.8-0.6,1.9-0.2,2.7"/>
	<g>
		<path class="st1" d="M77.1,32.5c0.1,0.3,0.1,0.5,0.3,0.7c0-0.1-0.1-0.3-0.1-0.4c0,0.1,0,0.1,0,0.2c-0.2,0-0.3,0.2-0.4,0.4
			c-0.2,0.7-0.6,2.4,0.6,2.7c0.2,0,0.3,0,0.4-0.2c0.3-0.4,0-1,0-1.5s0.3-0.9-0.1-1.3c0,0.1,0.1,0.2,0.1,0.3c0.1-0.2,0.2-0.3,0.3-0.5
			c0-0.2,0-0.4-0.1-0.6C77.9,31.7,76.8,31.9,77.1,32.5L77.1,32.5z"/>
	</g>
</g>
<g class="st0">
	<path class="st1" d="M77.5,33.7c0.4,3.2-0.4,6.6-2.6,9.3c0.1-2.6,0.1-5.1-0.1-7.7"/>
	<g>
		<path class="st1" d="M77.1,33.7c-0.1,3.3-0.8,6.2-2.9,8.9c0.4,0.1,1,0.2,1.4,0.4c0.1-2.6,0-5.2-0.6-7.8c-0.1-0.5-0.9-0.3-0.9,0.1
			c0,2.6,0,5.1-0.1,7.7c-0.1,0.7,1.1,0.9,1.4,0.4c2.1-2.8,3.3-6.4,2.3-9.7C77.8,33.1,77.1,33.2,77.1,33.7L77.1,33.7z"/>
	</g>
</g>
<g class="st0">
	<path class="st1" d="M75,34.7c0,1.2,0.2,2.3,0.7,3.4"/>
	<g>
		<path class="st1" d="M74.5,34.7c-0.1,1.3,0.1,2.5,0.9,3.6c0.2,0.3,0.7,0.1,0.6-0.2c-0.2-1.1-0.6-2.2-0.6-3.3
			C75.4,34.2,74.5,34.2,74.5,34.7L74.5,34.7z"/>
	</g>
</g>
<g class="st0">
	<path class="st1" d="M72.8,45.2c0.2-0.3,0.4-0.7,0.7-1c0.4,4.3-2.2,8.4-4.8,12.1c-0.2-2.2,1.4-4.3,1.9-6.4c0.3-0.9,0.3-1.7,0.3-2.5
		c0.1-1.6,0.1-3.1,0.2-4.7c0-1.1,0.1-2.2-0.4-3.3"/>
	<g>
		<path class="st1" d="M72.9,45.3c0.3-0.3,0.6-0.5,0.9-0.8c-0.2-0.1-0.4-0.2-0.7-0.4c-0.7,4.5-2.5,8-5.1,11.9c0.4,0.1,1,0.2,1.4,0.4
			c0-3.1,1.9-5.8,2-8.9c0.1-2.6,0.7-5.6-0.3-8.1c-0.2-0.6-1.2-0.4-1.1,0.3c0.8,2.8,0.6,7.3-0.1,10.1c-0.6,2.3-1.9,4.2-2.1,6.6
			c0,0.7,1.1,0.9,1.4,0.4c2.5-3.7,5.5-8,4.5-12.6c-0.1-0.4-0.7-0.3-0.8,0c-0.1,0.4-0.2,0.7-0.3,1.1C72.7,45.3,72.8,45.3,72.9,45.3
			L72.9,45.3z"/>
	</g>
</g>
<g class="st0">
	<path class="st1" d="M69.8,38.9c-0.7-0.1-1.3-0.4-2-0.6c-0.1,0.1-0.2,0.3-0.1,0.4c0.2,0.1,0.6,0.1,0.8,0c0.1-0.2,0-0.4-0.2-0.4
		c0.1,0.4,0.4,0.8,0.9,1"/>
	<g>
		<path class="st1" d="M69.8,38.5c-0.7-0.1-1.3-0.4-1.9-0.6c-0.2-0.1-0.3-0.1-0.4,0.1c-0.2,0.2-0.3,0.5-0.2,0.8
			c0,0.1,0.1,0.2,0.3,0.3c0.3,0.1,0.9,0.1,1-0.2c0.1-0.2,0-0.4-0.1-0.6c-0.1-0.2-0.3-0.1-0.4,0.1c0,0.5,0.6,0.9,1,1.2
			c0.2,0.1,0.4-0.2,0.2-0.3c-0.4-0.3-0.6-0.7-0.9-1c0,0.1-0.1,0.2-0.1,0.3c0,0,0.2,0.1,0,0.1c-0.1,0-0.3-0.1-0.4-0.1
			c0.1,0.1,0.1,0.2,0.2,0.3v-0.1c-0.1,0-0.3,0-0.4,0.1c0.7,0.3,1.3,0.5,2.1,0.7C70.1,39.3,70.3,38.7,69.8,38.5L69.8,38.5z"/>
	</g>
</g>
<g class="st0">
	<path class="st1" d="M67.4,36.1c1.1,0,2,0.8,2.6,1.5c4.8,5.4,6.7,12.3,8.5,18.9c0.6-4.6-0.2-9.3-2.3-13.6"/>
	<g>
		<path class="st1" d="M67.1,36.5c4,1.2,6.4,7.7,7.6,10.9c1.1,3,2,6.1,2.9,9.2c0.2,0.8,1.5,0.6,1.5-0.2c0.2-4.8-0.3-9.5-2.8-13.8
			c-0.2-0.3-0.8-0.1-0.7,0.3c1.5,4.4,2.6,8.6,1.9,13.3c0.6,0,1,0,1.5,0c-1.1-4.7-2.4-9.5-4.8-13.8c-1.4-2.6-3.4-6.4-6.9-6.8
			C66.7,35.5,66.7,36.4,67.1,36.5L67.1,36.5z"/>
	</g>
</g>
<g class="st0">
	<path class="st1" d="M71.1,36.2c-0.2-0.2-0.4-0.4-0.7-0.7c0.4,1.1,1.1,2.1,2.1,3c0-0.2-0.1-0.4-0.3-0.4"/>
	<g>
		<path class="st1" d="M71.3,36c-0.2-0.2-0.3-0.5-0.6-0.7c-0.2-0.4-0.9-0.1-0.8,0.3c0.3,1.1,1.1,2.6,2.3,3.2
			c0.2,0.1,0.6-0.1,0.6-0.3c-0.1-0.3-0.3-0.4-0.7-0.4c-0.2,0-0.2,0.2-0.1,0.3l0.1,0.1c0.2,0,0.4,0,0.7-0.1c-0.2-0.5-0.8-1-1.1-1.5
			s-0.7-1-0.9-1.6c-0.2,0.2-0.4,0.4-0.6,0.5c0.2,0.1,0.4,0.3,0.7,0.5C71.1,36.5,71.6,36.3,71.3,36L71.3,36z"/>
	</g>
</g>
<g class="st0">
	<path class="st1" d="M71.2,36.7c-0.6-0.7-1.2-1.4-1.8-2.1"/>
	<g>
		<path class="st1" d="M71.3,36.7c-0.3-0.4-0.6-0.8-0.9-1.2c-0.2-0.4-0.4-0.8-0.8-1.1c-0.2-0.3-0.8,0.1-0.6,0.4c0.3,0.4,0.7,0.6,1,1
			c0.3,0.4,0.7,0.7,1,1.1C71.2,36.9,71.4,36.8,71.3,36.7L71.3,36.7z"/>
	</g>
</g>
<g class="st0">
	<path class="st1" d="M64.3,36c-0.1-0.4-0.1-0.7-0.2-1.1"/>
	<g>
		<path class="st1" d="M64.4,36c-0.1-0.4-0.1-0.7-0.2-1.1c0-0.1-0.2-0.1-0.2,0.1c0.1,0.4,0.1,0.7,0.2,1.1
			C64.2,36.2,64.5,36.1,64.4,36L64.4,36z"/>
	</g>
</g>
<g class="st0">
	<path class="st1" d="M48.7,30.8c0.1-1.4,0.2-2.9,0.3-4.3c0.2,0.9,0.7,1.8,1.1,2.6c0.6-1,0.9-2,1.1-3.1c-0.1,1.1,0,2.2,0.6,3.2
		c0.1-1.2,0.2-2.4,0.1-3.7c0.2,1.4,0.8,2.8,1.5,4c0-1.1,0-2.3,0-3.4"/>
	<g>
		<path class="st1" d="M49.3,30.9c0.2-1.5,0.6-2.9,0.4-4.4c-0.4,0.1-0.9,0.1-1.3,0.2c0.3,0.9,0.8,1.8,1.3,2.7
			c0.2,0.4,0.9,0.3,1.1-0.1c0.4-1,0.9-2,1.1-3.1c-0.3,0-0.8-0.1-1.1-0.1c-0.1,1.2,0.1,2.3,0.6,3.4c0.2,0.5,1.1,0.5,1.1-0.1
			c0.1-1.2,0.2-2.4,0.1-3.7c-0.4,0-0.8,0.1-1.2,0.1c0.7,1.4,1.1,2.7,1.9,4.1c0.1,0.2,0.6,0.2,0.6-0.1c0.3-1.1,0.4-2.5,0.1-3.6
			c-0.1-0.3-0.7-0.3-0.8,0c-0.3,1.1-0.3,2.5,0,3.6c0.2-0.1,0.4-0.1,0.6-0.2c-0.7-1.1-1.3-2.6-1.2-3.9c0-0.7-1.2-0.7-1.2,0
			c0,1.2,0.1,2.4,0,3.7c0.3,0,0.8-0.1,1.1-0.1c-0.4-1-0.6-2-0.4-3.1c0.1-0.6-1-0.7-1.1-0.1c-0.2,1-0.6,2-1,3c0.3,0,0.7,0,1,0
			c-0.4-0.8-0.8-1.6-1-2.5c-0.1-0.6-1.2-0.6-1.3,0c-0.3,1.5-0.2,3-0.2,4.4C48.3,31.3,49.2,31.4,49.3,30.9L49.3,30.9z"/>
	</g>
</g>
<g class="st0">
	<path class="st1" d="M54.9,31.5c0.3-1.7,0.9-3.4,1.7-5.1"/>
	<g>
		<path class="st1" d="M55.4,31.6c0.2-1,0.6-1.9,1-2.9c0.3-0.8,0.8-1.6,0.6-2.4c-0.1-0.2-0.3-0.3-0.4-0.2c-0.8,0.5-1,1.5-1.2,2.3
			c-0.3,1-0.4,2.1-0.7,3.1C54.5,31.9,55.2,32,55.4,31.6L55.4,31.6z"/>
	</g>
</g>
<g class="st0">
	<path class="st1" d="M56.7,30.6c0.2-1.5,0.9-3.1,2-4.4"/>
	<g>
		<path class="st1" d="M57.1,30.7c0.3-1.6,1.2-2.9,1.9-4.4c0.1-0.3-0.3-0.5-0.7-0.3c-1.4,1.1-2,2.9-2.1,4.6
			C56.1,31.1,57,31.2,57.1,30.7L57.1,30.7z"/>
	</g>
</g>
<g class="st0">
	<path class="st1" d="M57.9,30.9c0.2-1.1,0.9-2.1,1.8-2.9"/>
	<g>
		<path class="st1" d="M58.2,31c0.1-0.5,0.3-1.1,0.7-1.5c0.3-0.5,0.8-0.8,1.1-1.3c0.2-0.3-0.1-0.5-0.4-0.4c-1.1,0.5-1.8,2-2,3
			C57.6,31.2,58.1,31.4,58.2,31L58.2,31z"/>
	</g>
</g>
<g class="st0">
	<path class="st1" d="M59.1,31.3c0.2-1.2,1.1-2.2,2.3-2.8"/>
	<g>
		<path class="st1" d="M59.4,31.4c0.1-0.6,0.4-1,0.9-1.5c0.4-0.4,0.9-0.7,1.3-1.1c0.2-0.2,0.1-0.6-0.2-0.5c-1.7,0.1-2.5,1.8-2.6,3.1
			C58.7,31.7,59.3,31.7,59.4,31.4L59.4,31.4z"/>
	</g>
</g>
<g class="st0">
	<path class="st1" d="M61.2,31.5c0.6-0.7,1.2-1.4,1.8-2.2"/>
	<g>
		<path class="st1" d="M61.5,31.8c0.3-0.4,0.8-0.9,1.1-1.3c0.3-0.3,0.7-0.7,0.7-1.2c0-0.2-0.2-0.3-0.4-0.3c-0.4,0.1-0.8,0.5-1.1,0.9
			c-0.3,0.4-0.7,0.9-1,1.3C60.5,31.6,61.2,32.2,61.5,31.8L61.5,31.8z"/>
	</g>
</g>
<g class="st0">
	<path class="st1" d="M63,30.8c-0.1,0.3-0.3,0.6-0.4,0.9c0.9-1,1.7-2,2.3-3.1"/>
	<g>
		<path class="st1" d="M62.7,30.6c-0.1,0.3-0.3,0.6-0.6,0.8c-0.2,0.3,0.2,0.6,0.6,0.4c0.6-0.5,1.1-1,1.5-1.6c0.4-0.5,0.9-1,0.9-1.7
			c0-0.2-0.2-0.4-0.4-0.2c-0.6,0.4-0.8,0.9-1.2,1.4c-0.4,0.6-0.9,1.2-1.2,1.8c0.2,0.1,0.4,0.1,0.6,0.2c0.1-0.3,0.2-0.6,0.3-0.8
			C63.3,30.6,63,30.4,62.7,30.6L62.7,30.6z"/>
	</g>
</g>
<g class="st0">
	<path class="st1" d="M65.4,31.3c0.9-2.2,1.1-4.6,0.8-6.9"/>
	<g>
		<path class="st1" d="M65.8,31.4c0.9-2,1.7-4.9,0.8-7c-0.1-0.3-0.7-0.4-0.7,0c-0.2,1,0,2-0.1,3.1c-0.1,1.3-0.3,2.5-0.7,3.8
			C64.9,31.7,65.6,31.8,65.8,31.4L65.8,31.4z"/>
	</g>
</g>
<g class="st0">
	<path class="st1" d="M49.5,31.8c-1.3-1.6-2.3-3.5-2.9-5.4"/>
	<g>
		<path class="st1" d="M49.8,31.6c-1.3-1.7-2.1-3.5-3-5.3c-0.1-0.3-0.6-0.1-0.6,0.2c0.3,2,1.4,3.9,2.8,5.5
			C49.4,32.5,50.3,32.1,49.8,31.6L49.8,31.6z"/>
	</g>
</g>
<g class="st0">
	<path class="st1" d="M47.7,30.6c-1.1-1.2-1.8-2.8-1.8-4.3"/>
	<g>
		<path class="st1" d="M48.2,30.3c-1.1-1.3-1.3-2.7-1.9-4.2c-0.1-0.3-0.6-0.3-0.7,0c-0.6,1.7,0.6,3.5,1.8,4.7
			C47.7,31.3,48.5,30.7,48.2,30.3L48.2,30.3z"/>
	</g>
</g>
<g class="st0">
	<path class="st1" d="M45.3,29.5c-0.8-1.2-1.2-2.6-1.1-4"/>
	<g>
		<path class="st1" d="M45.8,29.3c-0.8-1.2-0.9-2.5-1.1-3.9c0-0.3-0.7-0.3-0.8,0c-0.3,1.5,0.2,3,1.1,4.2
			C45.3,30.1,46,29.7,45.8,29.3L45.8,29.3z"/>
	</g>
</g>
<g class="st0">
	<path class="st1" d="M43.1,28.6c-0.3-1.4-0.3-2.9,0-4.3"/>
	<g>
		<path class="st1" d="M43.6,28.5c-0.2-1.4,0-2.8,0-4.2c0-0.4-0.6-0.4-0.7-0.1c-0.7,1.4-0.4,3-0.1,4.5
			C42.9,29.1,43.7,28.9,43.6,28.5L43.6,28.5z"/>
	</g>
</g>
<g class="st0">
	<path class="st1" d="M42.1,26.2c-0.2-1.2-0.1-2.4,0.6-3.4"/>
	<g>
		<path class="st1" d="M42.5,26.2c-0.1-0.6-0.1-1.3,0.1-1.9c0.1-0.5,0.4-1,0.6-1.6c0-0.3-0.4-0.4-0.7-0.2c-1,0.8-0.9,2.6-0.7,3.8
			C41.9,26.7,42.5,26.6,42.5,26.2L42.5,26.2z"/>
	</g>
</g>
<g class="st0">
	<path class="st1" d="M41.9,24.8C41,24,41.5,22.4,42.7,22"/>
	<g>
		<path class="st1" d="M42.2,24.5c-0.7-0.7,0-1.7,0.7-2.1c0.4-0.2,0.1-0.8-0.3-0.7c-1.8,0.3-2.2,2.3-1,3.3
			C42,25.3,42.6,24.9,42.2,24.5L42.2,24.5z"/>
	</g>
</g>
<g class="st0">
	<path class="st1" d="M54.6,32.4c0.6-1.2,1-2.4,1.5-3.6"/>
	<g>
		<path class="st1" d="M55,32.6c0.7-1.2,1.4-2.4,1.5-3.8c0-0.3-0.4-0.4-0.6-0.2c-1,1.1-1.3,2.4-1.8,3.7C54,32.7,54.8,33,55,32.6
			L55,32.6z"/>
	</g>
</g>
<g class="st0">
	<path class="st1" d="M56.6,35.1c0.6-1.6,1.2-3.2,2.1-4.7"/>
	<g>
		<path class="st1" d="M56.9,35.2c0.6-1.6,1.4-3.1,2-4.7c0.1-0.3-0.3-0.5-0.6-0.2c-1.1,1.4-1.7,3.1-2.1,4.8
			C56,35.4,56.8,35.6,56.9,35.2L56.9,35.2z"/>
	</g>
</g>
<g class="st0">
	<path class="st1" d="M56.9,34.2c0.6-1.3,1.3-2.4,2.3-3.5"/>
	<g>
		<path class="st1" d="M57.3,34.3c0.3-0.7,0.7-1.3,1.1-1.9c0.4-0.5,0.9-1,1-1.6c0-0.2-0.1-0.4-0.3-0.3c-0.8,0.3-1.1,0.9-1.5,1.5
			c-0.4,0.7-0.8,1.4-1.1,2.2C56.3,34.6,57.1,34.7,57.3,34.3L57.3,34.3z"/>
	</g>
</g>
<g class="st0">
	<path class="st1" d="M58,34.6c0.3-1.1,1-2.2,2-3.1"/>
	<g>
		<path class="st1" d="M58.3,34.6c0.2-0.6,0.4-1.1,0.9-1.6c0.3-0.5,0.8-0.9,1.1-1.4c0.2-0.3-0.2-0.6-0.4-0.4
			c-1.2,0.7-1.8,2.1-2.1,3.3C57.6,34.9,58.2,35,58.3,34.6L58.3,34.6z"/>
	</g>
</g>
<g class="st0">
	<path class="st1" d="M58,34.5c1-1.2,2-2.4,3.1-3.6"/>
	<g>
		<path class="st1" d="M58.2,34.8c1.1-1.2,2.2-2.4,3-3.7c0.1-0.3-0.2-0.5-0.4-0.3c-1.2,1.1-2.2,2.4-3.2,3.6
			C57.3,34.7,58,35.1,58.2,34.8L58.2,34.8z"/>
	</g>
</g>
<g class="st0">
	<path class="st1" d="M60.4,34c0.8-1,1.7-1.9,2.4-2.9"/>
	<g>
		<path class="st1" d="M60.5,34.2c0.9-0.9,1.8-1.9,2.4-2.9c0.1-0.3-0.2-0.5-0.4-0.3c-1,0.9-1.7,1.9-2.4,2.9
			C60,34.1,60.3,34.4,60.5,34.2L60.5,34.2z"/>
	</g>
</g>
<g class="st0">
	<path class="st1" d="M63,33.6c0.6-0.8,1-1.6,1.5-2.4"/>
	<g>
		<path class="st1" d="M63.3,33.8c0.6-0.8,1.1-1.5,1.4-2.4c0.1-0.2-0.3-0.4-0.4-0.2c-0.7,0.7-1.1,1.5-1.7,2.4
			C62.5,33.8,63.1,34.1,63.3,33.8L63.3,33.8z"/>
	</g>
</g>
<g class="st0">
	<path class="st1" d="M66.7,32.2c0.8-0.9,1.4-1.9,2-2.9"/>
	<g>
		<path class="st1" d="M67,32.4c0.7-0.9,1.7-1.9,1.9-3c0.1-0.3-0.3-0.6-0.6-0.3c-0.4,0.4-0.7,0.9-1,1.4c-0.3,0.5-0.7,1-1.1,1.5
			C65.9,32.4,66.7,32.8,67,32.4L67,32.4z"/>
	</g>
</g>
<g class="st0">
	<path class="st1" d="M67.1,31.5c0.9-0.7,2.1-1.1,3.3-1.1"/>
	<g>
		<path class="st1" d="M67.6,31.9c0.9-0.6,2-0.7,3-1.2c0.3-0.2,0.2-0.6-0.1-0.7c-1.3-0.4-2.8,0.3-3.9,1.1
			C66,31.6,66.9,32.3,67.6,31.9L67.6,31.9z"/>
	</g>
</g>
<g class="st0">
	<path class="st1" d="M68.7,30.6c0.4-0.8,1.5-1.3,2.5-1.1"/>
	<g>
		<path class="st1" d="M69.1,30.8c0.4-0.8,1.4-0.9,2.3-1.1c0.2-0.1,0.3-0.4,0.1-0.5c-1.1-0.6-2.6,0.2-3.1,1.1
			C68,30.9,68.8,31.3,69.1,30.8L69.1,30.8z"/>
	</g>
</g>
<g class="st0">
	<path class="st1" d="M68.5,29.3c0.7-0.6,1.5-1.1,2.4-1.4"/>
	<g>
		<path class="st1" d="M68.7,29.6c0.7-0.6,1.5-1,2.2-1.5c0.2-0.2,0.1-0.5-0.2-0.5c-1,0.1-1.9,0.8-2.6,1.4
			C67.7,29.4,68.4,29.9,68.7,29.6L68.7,29.6z"/>
	</g>
</g>
<g class="st0">
	<path class="st1" d="M69.1,27.7c0.4-1.6,1.9-3,3.6-3.6"/>
	<g>
		<path class="st1" d="M69.6,27.8c0.4-1.7,1.9-2.7,3.4-3.5c0.2-0.1,0.1-0.5-0.2-0.4c-2,0.4-3.5,2-4,3.8
			C68.6,28.1,69.3,28.3,69.6,27.8L69.6,27.8z"/>
	</g>
</g>
<g class="st0">
	<path class="st1" d="M71.6,26.3c0.9-1.1,2.1-2.1,3.4-2.8"/>
	<g>
		<path class="st1" d="M71.8,26.4c0.4-0.6,1.1-1.1,1.7-1.6c0.6-0.4,1.3-0.7,1.7-1.3c0.1-0.2,0-0.4-0.2-0.4c-0.8,0.1-1.4,0.7-2,1.1
			c-0.7,0.5-1.2,1.1-1.8,1.8C70.9,26.4,71.6,26.8,71.8,26.4L71.8,26.4z"/>
	</g>
</g>
<g class="st0">
	<path class="st1" d="M69.1,26.4c1.2-1.5,3-2.7,5-3.5"/>
	<g>
		<path class="st1" d="M69.5,26.7c0.7-0.8,1.4-1.5,2.4-2.1c0.8-0.5,1.8-0.8,2.5-1.4c0.3-0.2,0.1-0.7-0.3-0.7
			c-2.2,0.2-4.2,2.1-5.3,3.7C68.5,26.6,69.1,27.1,69.5,26.7L69.5,26.7z"/>
	</g>
</g>
<g class="st0">
	<path class="st1" d="M70,23.7c0.7-1,1.9-1.8,3.2-2.1"/>
	<g>
		<path class="st1" d="M70.3,23.9c0.4-0.5,0.9-0.9,1.4-1.3c0.6-0.3,1.1-0.5,1.7-0.8c0.2-0.2,0-0.5-0.2-0.5c-1.4-0.2-2.9,1.2-3.5,2.2
			C69.3,24,70,24.3,70.3,23.9L70.3,23.9z"/>
	</g>
</g>
<g class="st0">
	<path class="st1" d="M71.2,23.7c0.2-0.2,0.4-0.4,0.7-0.5"/>
	<g>
		<path class="st1" d="M71.6,24c0.2-0.2,0.4-0.4,0.6-0.6c0.2-0.2-0.1-0.6-0.3-0.4s-0.4,0.3-0.7,0.5C70.6,23.7,71.2,24.3,71.6,24
			L71.6,24z"/>
	</g>
</g>
<g class="st0">
	<path class="st1" d="M63.6,33.5c0.6,0.8,1,1.7,1.5,2.5"/>
	<g>
		<path class="st1" d="M63.2,33.7c0.6,0.8,1,1.8,1.8,2.5c0.2,0.2,0.6,0,0.4-0.3c-0.1-0.5-0.3-0.9-0.6-1.3c-0.2-0.5-0.6-0.9-0.8-1.4
			C63.8,32.7,62.8,33.2,63.2,33.7L63.2,33.7z"/>
	</g>
</g>
<g class="st0">
	<path class="st1" d="M63,34.7c0.3,0.7,0.6,1.4,0.9,2.2"/>
	<g>
		<path class="st1" d="M62.6,34.8c0.2,0.7,0.6,1.5,1,2.2c0.1,0.2,0.6,0.1,0.4-0.1c-0.1-0.8-0.4-1.5-0.8-2.3
			C63.2,34.3,62.4,34.4,62.6,34.8L62.6,34.8z"/>
	</g>
</g>
<g class="st0">
	<path class="st1" d="M49.3,36.2c1.3-1.7,2.9-3.2,4.7-4.5"/>
	<g>
		<path class="st1" d="M49.7,36.4c1.3-1.7,3.1-3,4.6-4.5c0.3-0.3-0.1-0.8-0.6-0.6c-2.1,1.1-3.6,2.8-5,4.7
			C48.5,36.4,49.3,36.9,49.7,36.4L49.7,36.4z"/>
	</g>
</g>
<g class="st0">
	<path class="st1" d="M46.9,37.3c0.4-1.3,0.8-2.6,1.2-4"/>
	<g>
		<path class="st1" d="M47.3,37.4c0.4-1.3,1.2-2.7,1.2-4.1c0-0.4-0.6-0.5-0.8-0.2c-0.8,1.2-1,2.7-1.2,4
			C46.3,37.6,47.1,37.8,47.3,37.4L47.3,37.4z"/>
	</g>
</g>
<g class="st0">
	<path class="st1" d="M47.1,32.9c0.2-0.6,0.1-1.3-0.3-1.8"/>
	<g>
		<path class="st1" d="M47.5,33c0.2-0.8,0.2-1.9-0.8-2.2c-0.2-0.1-0.3,0.1-0.3,0.3c0,0.6,0.4,1.1,0.2,1.7
			C46.5,33.3,47.3,33.5,47.5,33L47.5,33z"/>
	</g>
</g>
<g class="st0">
	<path class="st1" d="M45.5,31.1c0.1-0.2,0.1-0.4,0.2-0.5"/>
	<g>
		<path class="st1" d="M45.9,31.2c0-0.2,0.1-0.4,0.1-0.6s-0.3-0.4-0.4-0.2c-0.1,0.2-0.2,0.3-0.3,0.5C45.1,31.4,45.8,31.6,45.9,31.2
			L45.9,31.2z"/>
	</g>
</g>
</svg>
