<?xml version="1.0" encoding="utf-8"?>
<!-- Generator: Adobe Illustrator 22.0.0, SVG Export Plug-In . SVG Version: 6.00 Build 0)  -->
<svg version="1.1" id="Capa_1" xmlns="http://www.w3.org/2000/svg" xmlns:xlink="http://www.w3.org/1999/xlink" x="0px" y="0px"
	 viewBox="0 0 100 100" style="enable-background:new 0 0 100 100;" xml:space="preserve">
<style type="text/css">
	.st0{fill:#808080;}
	.st1{fill:#4D4D4D;}
	.st2{fill:#FFFFFF;}
	.st3{fill:#333333;}
</style>
<g>
	<g>
		<path class="st0" d="M59.7,82.2C59.8,82.2,59.8,82.1,59.7,82.2C59.7,82.1,59.7,82.2,59.7,82.2L59.7,82.2z"/>
	</g>
</g>
<g>
	<g>
		<g>
			<g>
				<path class="st1" d="M95.8,62.6c-4.6,2.2-11.3,4.8-16.6,3.8c-7.3-1.4-6.7-11.5-5.9-17.1c1.5-9.7,5.2-19.3,7.8-28.7
					c0.1-0.3-0.4-0.5-0.5-0.1c-2.1,7.2-4.3,14.4-6.3,21.6c-1.6,5.7-2.8,11.7-1.5,17.7c0.8,3.5,1.8,6.6,5.6,7.1
					c5.9,0.9,12.4-1.3,17.5-4C96.2,62.8,96,62.5,95.8,62.6L95.8,62.6z"/>
			</g>
		</g>
		<g>
			<g>
				<path class="st1" d="M80.5,20.1c-15.1-6.3-30.5-12-45.9-17.4c-0.3-0.1-0.4,0.4-0.1,0.5C50,8.6,65.2,14.5,80.5,20.3
					C80.6,20.4,80.7,20.2,80.5,20.1L80.5,20.1z"/>
			</g>
		</g>
		<g>
			<g>
				<path class="st1" d="M34.3,2.9c-5.1,11.9-13.6,31.3-4.6,43.5c4.1,5.5,11.6,6.7,17.7,8.8c9.7,3.4,19.2,7.2,28.6,11.3
					c0.3,0.1,0.6-0.3,0.3-0.4c-6.6-2.9-13.2-5.6-19.9-8.1c-3.8-1.4-7.6-2.8-11.4-4.1c-3.6-1.2-7.9-2.1-11.1-4.2
					c-15-9.8-4.1-34,0.7-46.6C34.4,2.8,34.3,2.8,34.3,2.9L34.3,2.9z"/>
			</g>
		</g>
		<g>
			<g>
				<path class="st1" d="M38.2,53C38.2,53,38.2,52.9,38.2,53C38.2,52.9,38.2,53,38.2,53L38.2,53z"/>
			</g>
		</g>
		<g>
			<g>
				<path class="st1" d="M40.6,52.7c-8.2-0.7-15.1,0.1-22,5c-6,4.3-11.7,10.3-15.8,16.4c-0.2,0.3,0.3,0.6,0.5,0.3
					c3.8-5.8,9.4-11.6,15-15.8c6.8-5.1,13.9-6,22.3-5.6C40.8,53,40.8,52.7,40.6,52.7L40.6,52.7z"/>
			</g>
		</g>
		<g>
			<g>
				<path class="st1" d="M2.6,74.8c14.8,7.7,30.3,13.9,46,19.4c0.5,0.2,0.7-0.6,0.2-0.7c-15.7-5.5-30.9-12.1-46-19
					C2.6,74.4,2.4,74.7,2.6,74.8L2.6,74.8z"/>
			</g>
		</g>
		<g>
			<g>
				<path class="st1" d="M48.9,94.2c7.4-6.9,15.2-13.4,23.7-18.8c7.8-5,17.5-3.9,25.1-9.5c0.4-0.3,0-1-0.4-0.7
					c-4.5,3.3-9.4,4.4-14.8,5.4c-4.4,0.8-7.9,2.4-11.6,4.9c-8,5.3-15.4,11.6-22.2,18.4C48.5,94.1,48.7,94.4,48.9,94.2L48.9,94.2z"/>
			</g>
		</g>
		<g>
			<g>
				<path class="st1" d="M97.2,65.5C97.2,65.5,97.2,65.5,97.2,65.5c0.1-0.1,0.1-0.2,0-0.3c-0.3-0.4-0.5-0.8-0.5-1.3
					c0-0.1-0.1-0.2-0.2-0.3c-0.4-0.1-0.9-0.2-1.4-0.2c-0.3,0-0.4,0.5-0.1,0.6c0.4,0.1,0.9,0.1,1.3,0.2c-0.1-0.1-0.1-0.2-0.2-0.3
					c0.1,0.6,0.3,1.1,0.7,1.6C96.9,65.6,97.1,65.6,97.2,65.5C97.2,65.5,97.2,65.5,97.2,65.5L97.2,65.5z"/>
			</g>
		</g>
		<g>
			<g>
				<path class="st1" d="M72.1,64.1C72.2,64.1,72.2,64,72.1,64.1C72.1,64,72.1,64.1,72.1,64.1L72.1,64.1z"/>
			</g>
		</g>
		<g>
			<g>
				<path class="st1" d="M70.3,64.2c-3.5-7.8-1.7-16.5-0.4-24.6c1.2-7.4,2.6-14.7,4.3-22c0-0.2-0.3-0.3-0.3-0.1
					c-2.1,9.1-3.9,18.3-5.1,27.5c-0.9,6.5-1.8,13.2,1.4,19.2C70.2,64.4,70.3,64.3,70.3,64.2L70.3,64.2z"/>
			</g>
		</g>
		<g>
			<g>
				<path class="st1" d="M63.2,60.5c-2.9-7.1-0.5-16.3,0.7-23.5c1.3-7.2,3-14.3,5-21.4c0.1-0.3-0.4-0.4-0.4-0.1
					C66,24,64,32.6,62.7,41.4c-0.9,6.2-2.5,13.3,0.2,19.3C63,60.8,63.2,60.7,63.2,60.5L63.2,60.5z"/>
			</g>
		</g>
		<g>
			<g>
				<path class="st1" d="M57.5,58.8c-1.9-3.4-1-7.8-0.7-11.5c0.3-3.6,0.6-7.2,1-10.8c0.9-7.8,2.5-15.4,5.1-22.8
					c0.1-0.2-0.3-0.3-0.4-0.1c-2.8,8-4.4,16.3-5.3,24.7c-0.5,4.2-0.8,8.4-1,12.7c-0.2,2.9-0.5,5.5,1.1,8
					C57.4,59,57.5,58.9,57.5,58.8L57.5,58.8z"/>
			</g>
		</g>
		<g>
			<g>
				<path class="st1" d="M52.1,56.6c-2.6-6.9-0.5-16.4,0.7-23.4c1.3-7.1,3.3-14,5.5-20.9c0.1-0.2-0.2-0.2-0.3-0.1
					c-3.2,8.1-5.2,16.8-6.4,25.5c-0.8,5.9-2.4,13.3,0.3,18.9C52,56.8,52.1,56.7,52.1,56.6L52.1,56.6z"/>
			</g>
		</g>
		<g>
			<g>
				<path class="st1" d="M32.1,8.4c15.2,6.4,30.9,12,46.5,17.4c0.4,0.1,0.6-0.5,0.2-0.6C63.1,19.8,47.7,13.9,32.2,8.1
					C32.1,8.1,32,8.3,32.1,8.4L32.1,8.4z"/>
			</g>
		</g>
		<g>
			<g>
				<path class="st1" d="M27.4,39.1C27.5,39.1,27.5,39.1,27.4,39.1C27.4,39.1,27.4,39.1,27.4,39.1L27.4,39.1z"/>
			</g>
		</g>
		<g>
			<g>
				<path class="st1" d="M29.9,13.7C29.9,13.7,29.9,13.6,29.9,13.7C29.8,13.6,29.8,13.7,29.9,13.7L29.9,13.7z"/>
			</g>
		</g>
		<g>
			<g>
				<path class="st1" d="M27.5,21.7c15.4,6.7,31.1,12.7,46.9,18.4c0.3,0.1,0.5-0.4,0.1-0.5c-15.8-5.6-31.4-11.8-47-18.1
					C27.5,21.4,27.4,21.6,27.5,21.7L27.5,21.7z"/>
			</g>
		</g>
		<g>
			<g>
				<path class="st1" d="M25.6,28.5c6.7,3.9,14.5,6.2,21.7,8.9c8.6,3.3,17.1,6.5,25.8,9.6c0.4,0.2,0.6-0.5,0.2-0.7
					c-15.8-5.8-32.3-10.8-47.5-18.1C25.5,28.1,25.4,28.4,25.6,28.5L25.6,28.5z"/>
			</g>
		</g>
		<g>
			<g>
				<path class="st1" d="M26.9,40.9c5.4,5.2,12.9,7.6,19.7,10.3c8.2,3.2,16.7,6,25.6,6.5c0.4,0,0.3-0.5,0-0.5
					c-8.2-0.9-16-2.9-23.7-5.8c-7.3-2.8-15.4-5.4-21.3-10.7C27,40.4,26.7,40.7,26.9,40.9L26.9,40.9z"/>
			</g>
		</g>
		<g>
			<g>
				<path class="st1" d="M73,52.2C73,52.2,73,52.1,73,52.2C72.9,52.1,72.9,52.2,73,52.2L73,52.2z"/>
			</g>
		</g>
		<g>
			<g>
				<path class="st1" d="M72.6,52.1c-16.7-3.7-32.1-9.5-47.1-17.7c-0.1-0.1-0.2,0.1-0.1,0.2c14.3,8.7,30.7,14.8,47.2,17.6
					C72.7,52.2,72.7,52.1,72.6,52.1L72.6,52.1z"/>
			</g>
		</g>
		<g>
			<g>
				<path class="st2" d="M95.8,62.5c0.1,0,0.1-0.1,0-0.1C95.7,62.4,95.7,62.5,95.8,62.5L95.8,62.5z"/>
			</g>
		</g>
		<g>
			<g>
				<path class="st0" d="M72.8,53.8c3.2,2.1,6.7,3.2,10.2,4.5c4.2,1.5,8.4,3.2,12.7,4.4c0.1,0,0.1-0.1,0-0.1
					C88.2,59.5,79.6,58.1,72.8,53.8C72.8,53.7,72.7,53.8,72.8,53.8L72.8,53.8z"/>
			</g>
		</g>
		<g>
			<g>
				<path class="st0" d="M75.7,56.6c0.6,0.2,1,0.4,1.5,0.8c0,0,0,0,0,0C76.8,57,76.3,56.7,75.7,56.6C75.7,56.5,75.7,56.6,75.7,56.6
					L75.7,56.6z"/>
			</g>
		</g>
		<g>
			<g>
				<path class="st0" d="M79.4,58.4c3.7,1.7,7.5,3.2,11.4,4.4c0.1,0,0.1-0.1,0-0.2C87,61.4,83.2,60,79.4,58.4
					C79.4,58.4,79.4,58.4,79.4,58.4L79.4,58.4z"/>
			</g>
		</g>
		<g>
			<g>
				<path class="st3" d="M37,53.9c-0.2-0.1-0.4-0.1-0.5,0.1c-0.2,0.3,0.1,1,0.2,1.3c0,0,0.1,0,0.1,0c0-0.2-0.1-0.3-0.1-0.5
					C36.6,54.6,36.4,53.7,37,53.9C37,54,37.1,53.9,37,53.9L37,53.9z"/>
			</g>
		</g>
		<g>
			<g>
				<path class="st3" d="M14,63.2c-0.2-0.3-0.4,0-0.5,0.3c-0.1,0.3,0,0.8,0.1,1.1c0.1,0.5,0.1,1,0.3,1.4c0,0.1,0.1,0,0.1,0
					c0-0.4-0.1-0.8-0.2-1.2c0-0.2-0.1-0.5-0.1-0.7c0-0.1,0-0.2,0-0.3c0-0.2,0.1-0.4,0.3-0.5C14,63.4,14.1,63.3,14,63.2L14,63.2z"/>
			</g>
		</g>
		<g>
			<g>
				<path class="st3" d="M21.9,57.5c-0.3-0.3-0.5,0.1-0.5,0.4c-0.1,0.4,0,0.8,0.1,1.1c0,0.4,0.1,0.8,0.2,1.3c0,0.1,0.1,0,0.1,0
					c0-0.4-0.1-0.9-0.1-1.3c0-0.2,0-0.4-0.1-0.6c0-0.1,0-0.2,0-0.3c-0.1-0.3,0-0.4,0.3-0.5C21.9,57.7,22,57.6,21.9,57.5L21.9,57.5z"
					/>
			</g>
		</g>
		<g>
			<g>
				<path class="st3" d="M18.1,59.9c-0.3-0.4-0.5,0.2-0.5,0.4c-0.1,0.4,0,0.8,0.1,1.1c0,0.4,0.1,0.8,0.2,1.3c0,0.1,0.1,0,0.1,0
					c0-0.4-0.1-0.9-0.1-1.3c0-0.2,0-0.4-0.1-0.6c0-0.1,0-0.2,0-0.3c-0.1-0.2,0-0.4,0.3-0.5C18,60.1,18.1,60,18.1,59.9L18.1,59.9z"/>
			</g>
		</g>
		<g>
			<g>
				<path class="st3" d="M31.4,54c-0.6-0.5-0.3,1.3-0.3,1.5c0,0,0.1,0,0.1,0c0-0.2,0-0.4-0.1-0.6C31.2,54.8,31.1,53.8,31.4,54
					C31.4,54.1,31.5,54,31.4,54L31.4,54z"/>
			</g>
		</g>
		<g>
			<g>
				<path class="st3" d="M26.2,55.1C26.2,55.1,26.2,55.1,26.2,55.1C26.1,55,26.1,55,26.1,55c-0.2,0-0.2,0.2-0.3,0.4
					c-0.1,0.5,0,1.1,0.1,1.6c0,0.1,0.1,0,0.1,0c0-0.3,0-0.6,0-0.9c0-0.1,0-0.2,0-0.3c0,0,0.1-0.6,0.1-0.5
					C26.1,55.3,26.2,55.2,26.2,55.1L26.2,55.1z"/>
			</g>
		</g>
		<g>
			<g>
				<path class="st3" d="M8.3,70.3c-0.3-0.4-0.5,0-0.6,0.3c-0.1,0.4,0,0.9,0.1,1.3c0.1,0.6,0.1,1.3,0.3,1.9c0,0.1,0.2,0.1,0.2,0
					c0-0.5-0.1-1-0.2-1.4C8.1,72,8,71.7,8,71.4c0-0.1,0-0.3,0-0.4c0-0.2,0-0.4,0.2-0.6C8.2,70.5,8.4,70.4,8.3,70.3L8.3,70.3z"/>
			</g>
		</g>
		<g>
			<g>
				<path class="st3" d="M11,66.4c-0.2-0.3-0.4,0-0.5,0.3c-0.1,0.4,0,0.8,0.1,1.2c0.1,0.6,0.1,1.3,0.3,1.9c0,0.1,0.1,0,0.1,0
					c0-0.5-0.1-1-0.2-1.4c0-0.3-0.1-0.6-0.1-0.9c0-0.1,0-0.3,0-0.4c0-0.2,0-0.5,0.2-0.7C10.9,66.5,11.1,66.4,11,66.4L11,66.4z"/>
			</g>
		</g>
		<g>
			<g>
				<path class="st3" d="M50.5,57.9c-0.8-0.4-0.3,1.1-0.2,1.3c0,0,0.1,0,0.1,0c0-0.2-0.1-0.3-0.1-0.5C50.2,58.6,50,57.7,50.5,57.9
					C50.5,58,50.6,57.9,50.5,57.9L50.5,57.9z"/>
			</g>
		</g>
		<g>
			<g>
				<path class="st3" d="M48.9,78.4c-0.2-0.3-0.4,0-0.5,0.3c-0.1,0.3,0,0.8,0.1,1.1c0.1,0.5,0.1,1,0.3,1.4c0,0.1,0.1,0,0.1,0
					c0-0.4-0.1-0.8-0.2-1.2c0-0.2-0.1-0.5-0.1-0.7c0-0.1,0-0.2,0-0.3c0-0.2,0.1-0.4,0.3-0.5C48.9,78.6,49,78.5,48.9,78.4L48.9,78.4z
					"/>
			</g>
		</g>
		<g>
			<g>
				<path class="st3" d="M56.8,72.7c-0.3-0.3-0.5,0.1-0.5,0.4c-0.1,0.4,0,0.8,0.1,1.1c0,0.4,0.1,0.8,0.2,1.3c0,0.1,0.1,0,0.1,0
					c0-0.4-0.1-0.9-0.1-1.3c0-0.2,0-0.4-0.1-0.6c0-0.1,0-0.2,0-0.3c-0.1-0.3,0-0.4,0.3-0.5C56.7,72.9,56.8,72.8,56.8,72.7L56.8,72.7
					z"/>
			</g>
		</g>
		<g>
			<g>
				<path class="st3" d="M52.9,75.1c-0.3-0.4-0.5,0.2-0.5,0.4c-0.1,0.4,0,0.8,0.1,1.1c0,0.4,0.1,0.8,0.2,1.3c0,0.1,0.1,0,0.1,0
					c0-0.4-0.1-0.9-0.1-1.3c0-0.2,0-0.4-0.1-0.6c0-0.1,0-0.2,0-0.3c-0.1-0.2,0-0.4,0.3-0.5C52.9,75.3,53,75.2,52.9,75.1L52.9,75.1z"
					/>
			</g>
		</g>
		<g>
			<g>
				<path class="st3" d="M64.2,68c-0.2-0.2-0.4,0-0.4,0.2c-0.1,0.3,0,0.6,0,0.9c0,0.4,0,0.7,0.1,1.1c0,0.1,0.1,0,0.1,0
					c0-0.3,0-0.6,0-0.9c0-0.1,0-0.2,0-0.4c0-0.1,0-0.2,0-0.3c0-0.2,0.1-0.4,0.2-0.5C64.2,68.2,64.3,68.1,64.2,68L64.2,68z"/>
			</g>
		</g>
		<g>
			<g>
				<path class="st3" d="M60.8,70.3c-0.2-0.2-0.4-0.1-0.4,0.2c-0.1,0.3,0,0.6,0,0.9c0,0.4,0,0.8,0.1,1.2c0,0.1,0.1,0,0.1,0
					c0-0.3,0-0.6,0-1c0-0.1,0-0.3,0-0.4c0,0,0-1.1,0.2-0.8C60.8,70.4,60.9,70.3,60.8,70.3L60.8,70.3z"/>
			</g>
		</g>
		<g>
			<g>
				<path class="st3" d="M43.1,85.5c-0.2-0.3-0.4,0-0.5,0.3c-0.1,0.4,0,0.8,0.1,1.2c0.1,0.6,0.1,1.3,0.3,1.9c0,0.1,0.1,0,0.1,0
					c0-0.5-0.1-1-0.2-1.4c0-0.3-0.1-0.6-0.1-0.9c0-0.1,0-0.3,0-0.4c0-0.2,0-0.5,0.2-0.7C43.1,85.6,43.2,85.5,43.1,85.5L43.1,85.5z"
					/>
			</g>
		</g>
		<g>
			<g>
				<path class="st3" d="M45.9,81.6c-0.2-0.3-0.4,0-0.5,0.3c-0.1,0.4,0,0.8,0.1,1.2c0.1,0.6,0.1,1.3,0.3,1.9c0,0.1,0.1,0,0.1,0
					c0-0.5-0.1-1-0.2-1.4c0-0.3-0.1-0.6-0.1-0.9c0-0.1,0-0.3,0-0.4c0-0.2,0-0.5,0.2-0.7C45.8,81.7,45.9,81.6,45.9,81.6L45.9,81.6z"
					/>
			</g>
		</g>
		<g>
			<g>
				<path class="st3" d="M18.4,65.4c-0.2-0.3-0.4,0-0.5,0.3c-0.1,0.3,0,0.8,0.1,1.1c0.1,0.5,0.1,1,0.3,1.4c0,0.1,0.1,0,0.1,0
					c0-0.4-0.1-0.8-0.2-1.2c0-0.2-0.1-0.5-0.1-0.7c0-0.1,0-0.2,0-0.3c0-0.2,0.1-0.4,0.3-0.5C18.3,65.6,18.4,65.5,18.4,65.4
					L18.4,65.4z"/>
			</g>
		</g>
		<g>
			<g>
				<path class="st3" d="M26.4,60.1c-0.3-0.3-0.5,0.1-0.5,0.4c-0.1,0.4,0,0.8,0.1,1.1c0,0.4,0.1,0.8,0.2,1.3c0,0.1,0.1,0,0.1,0
					c0-0.4-0.1-0.9-0.1-1.3c0-0.2,0-0.4-0.1-0.6c0-0.1,0-0.2,0-0.3c-0.1-0.3,0-0.4,0.3-0.5C26.3,60.3,26.4,60.2,26.4,60.1L26.4,60.1
					z"/>
			</g>
		</g>
		<g>
			<g>
				<path class="st3" d="M21.9,62.9c-0.3-0.4-0.5,0.2-0.5,0.4c-0.1,0.4,0,0.8,0.1,1.1c0,0.4,0.1,0.8,0.2,1.3c0,0.1,0.1,0,0.1,0
					c0-0.4-0.1-0.9-0.1-1.3c0-0.2,0-0.4-0.1-0.6c0-0.1,0-0.2,0-0.3c-0.1-0.2,0-0.4,0.3-0.5C21.9,63.1,22,63,21.9,62.9L21.9,62.9z"/>
			</g>
		</g>
		<g>
			<g>
				<path class="st3" d="M45.1,55.3c-0.2-0.2-0.3-0.1-0.4,0.1c-0.1,0.2,0,0.5,0,0.7c0,0.3,0,0.6,0.1,0.9c0,0.1,0.1,0,0.1,0
					c0-0.3,0-0.5-0.1-0.8c0-0.1,0-0.2,0-0.3c0-0.1,0-0.8,0.2-0.5C45,55.5,45.1,55.4,45.1,55.3L45.1,55.3z"/>
			</g>
		</g>
		<g>
			<g>
				<path class="st3" d="M12.2,72.6c-0.2-0.3-0.4,0-0.5,0.3c-0.1,0.4,0,0.8,0.1,1.2c0.1,0.6,0.1,1.3,0.3,1.9c0,0.1,0.1,0,0.1,0
					c0-0.5-0.1-1-0.2-1.4c0-0.3-0.1-0.6-0.1-0.9c0-0.1,0-0.3,0-0.4c0-0.2,0-0.5,0.2-0.7C12.1,72.7,12.3,72.6,12.2,72.6L12.2,72.6z"
					/>
			</g>
		</g>
		<g>
			<g>
				<path class="st3" d="M15.3,69c-0.2-0.3-0.4,0-0.5,0.3c-0.1,0.4,0,0.8,0.1,1.2c0.1,0.6,0.1,1.3,0.3,1.9c0,0.1,0.1,0,0.1,0
					c0-0.5-0.1-1-0.2-1.4c0-0.3-0.1-0.6-0.1-0.9c0-0.1,0-0.3,0-0.4c0-0.2,0-0.5,0.2-0.7C15.2,69.1,15.3,69.1,15.3,69L15.3,69z"/>
			</g>
		</g>
		<g>
			<g>
				<path class="st3" d="M24,68.7c-0.2-0.3-0.4,0-0.5,0.3c-0.1,0.3,0,0.8,0.1,1.1c0.1,0.5,0.1,1,0.3,1.4c0,0.1,0.1,0,0.1,0
					c0-0.4-0.1-0.8-0.2-1.2c0-0.2-0.1-0.5-0.1-0.7c0-0.1,0-0.2,0-0.3c0-0.2,0.1-0.4,0.3-0.5C23.9,68.8,24,68.7,24,68.7L24,68.7z"/>
			</g>
		</g>
		<g>
			<g>
				<path class="st3" d="M31.8,62.9c-0.3-0.3-0.5,0.1-0.5,0.4c-0.1,0.4,0,0.8,0.1,1.1c0,0.4,0.1,0.8,0.2,1.3c0,0.1,0.1,0,0.1,0
					c0-0.4-0.1-0.9-0.1-1.3c0-0.2,0-0.4-0.1-0.6c0-0.1,0-0.2,0-0.3c-0.1-0.3,0-0.4,0.3-0.5C31.8,63.1,31.9,63,31.8,62.9L31.8,62.9z"
					/>
			</g>
		</g>
		<g>
			<g>
				<path class="st3" d="M28,65.4c-0.3-0.4-0.5,0.2-0.5,0.4c-0.1,0.4,0,0.8,0.1,1.1c0,0.4,0.1,0.8,0.2,1.3c0,0.1,0.1,0,0.1,0
					c0-0.4-0.1-0.9-0.1-1.3c0-0.2,0-0.4-0.1-0.6c0-0.1,0-0.2,0-0.3c-0.1-0.2,0-0.4,0.3-0.5C27.9,65.6,28,65.5,28,65.4L28,65.4z"/>
			</g>
		</g>
		<g>
			<g>
				<path class="st3" d="M55.7,59.5c-0.2-0.2-0.4,0-0.4,0.2c-0.1,0.3,0,0.6,0,0.9c0,0.4,0,0.7,0.1,1.1c0,0.1,0.1,0,0.1,0
					c0-0.3,0-0.6,0-0.9c0-0.1,0-0.2,0-0.4c0-0.1,0-0.2,0-0.3c0-0.2,0.1-0.4,0.2-0.5C55.6,59.7,55.7,59.6,55.7,59.5L55.7,59.5z"/>
			</g>
		</g>
		<g>
			<g>
				<path class="st3" d="M47.7,58.4c-0.2-0.2-0.4,0-0.4,0.2c-0.1,0.3,0,0.6,0,0.9c0,0.4,0,0.7,0.1,1.1c0,0.1,0.1,0,0.1,0
					c0-0.3,0-0.6,0-0.9c0-0.1,0-0.2,0-0.4c0-0.1,0-0.2,0-0.3c0-0.2,0.1-0.4,0.2-0.5C47.6,58.6,47.7,58.5,47.7,58.4L47.7,58.4z"/>
			</g>
		</g>
		<g>
			<g>
				<path class="st3" d="M18.2,75.7c-0.2-0.3-0.4,0-0.5,0.3c-0.1,0.4,0,0.8,0.1,1.2c0.1,0.6,0.1,1.3,0.3,1.9c0,0.1,0.1,0,0.1,0
					c0-0.5-0.1-1-0.2-1.4c0-0.3-0.1-0.6-0.1-0.9c0-0.1,0-0.3,0-0.4c0-0.2,0-0.5,0.2-0.7C18.1,75.9,18.2,75.8,18.2,75.7L18.2,75.7z"
					/>
			</g>
		</g>
		<g>
			<g>
				<path class="st3" d="M21,71.8c-0.2-0.4-0.4,0-0.5,0.3c-0.1,0.5,0,1,0.1,1.5c0.1,0.6,0.1,1.1,0.2,1.7c0,0.1,0.1,0,0.1,0
					c0-0.6-0.1-1.1-0.2-1.7c0-0.2-0.1-0.5-0.1-0.7c0-0.1,0-0.2,0-0.3c0-0.2,0-0.5,0.2-0.7C20.9,71.9,21.1,71.9,21,71.8L21,71.8z"/>
			</g>
		</g>
		<g>
			<g>
				<path class="st3" d="M29.1,70.3c-0.2-0.3-0.4,0-0.5,0.3c-0.1,0.3,0,0.8,0.1,1.1c0.1,0.5,0.1,1,0.3,1.4c0,0.1,0.1,0,0.1,0
					c0-0.4-0.1-0.8-0.2-1.2c0-0.2-0.1-0.5-0.1-0.7c0-0.1,0-0.2,0-0.3c0-0.2,0.1-0.4,0.3-0.5C29.1,70.5,29.2,70.4,29.1,70.3
					L29.1,70.3z"/>
			</g>
		</g>
		<g>
			<g>
				<path class="st3" d="M37,64.6c-0.3-0.3-0.5,0.1-0.5,0.4c-0.1,0.4,0,0.8,0.1,1.1c0,0.4,0.1,0.8,0.2,1.3c0,0.1,0.1,0,0.1,0
					c0-0.4-0.1-0.9-0.1-1.3c0-0.2,0-0.4-0.1-0.6c0-0.1,0-0.2,0-0.3c-0.1-0.3,0-0.4,0.3-0.5C37,64.8,37.1,64.7,37,64.6L37,64.6z"/>
			</g>
		</g>
		<g>
			<g>
				<path class="st3" d="M33.1,67c-0.3-0.4-0.5,0.2-0.5,0.4c-0.1,0.4,0,0.8,0.1,1.1c0,0.4,0.1,0.8,0.2,1.3c0,0.1,0.1,0,0.1,0
					c0-0.4-0.1-0.9-0.1-1.3c0-0.2,0-0.4-0.1-0.6c0-0.1,0-0.2,0-0.3c-0.1-0.2,0-0.4,0.3-0.5C33.1,67.2,33.2,67.1,33.1,67L33.1,67z"/>
			</g>
		</g>
		<g>
			<g>
				<path class="st3" d="M44.2,60.6c-0.2-0.2-0.4,0-0.4,0.2c-0.1,0.3,0,0.6,0,0.9c0,0.4,0,0.7,0.1,1.1c0,0.1,0.1,0,0.1,0
					c0-0.3,0-0.6,0-0.9c0-0.1,0-0.2,0-0.4c0-0.1,0-0.2,0-0.3c0-0.2,0.1-0.4,0.2-0.5C44.2,60.8,44.3,60.7,44.2,60.6L44.2,60.6z"/>
			</g>
		</g>
		<g>
			<g>
				<path class="st3" d="M40.6,62.6c-0.2-0.2-0.4,0-0.4,0.2c-0.1,0.3,0,0.6,0,0.9c0,0.4,0,0.7,0.1,1.1c0,0.1,0.1,0,0.1,0
					c0-0.3,0-0.6,0-0.9c0-0.1,0-0.2,0-0.4c0-0.1,0-0.2,0-0.3c0-0.2,0.1-0.4,0.2-0.5C40.6,62.8,40.7,62.7,40.6,62.6L40.6,62.6z"/>
			</g>
		</g>
		<g>
			<g>
				<path class="st3" d="M23.4,77.4c-0.2-0.3-0.4,0-0.5,0.3c-0.1,0.4,0,0.8,0.1,1.2c0.1,0.6,0.1,1.3,0.3,1.9c0,0.1,0.1,0,0.1,0
					c0-0.5-0.1-1-0.2-1.4c0-0.3-0.1-0.6-0.1-0.9c0-0.1,0-0.3,0-0.4c0-0.2,0-0.5,0.2-0.7C23.3,77.5,23.4,77.4,23.4,77.4L23.4,77.4z"
					/>
			</g>
		</g>
		<g>
			<g>
				<path class="st3" d="M26.1,73.5c-0.2-0.3-0.4,0-0.5,0.3c-0.1,0.4,0,0.8,0.1,1.2c0.1,0.6,0.1,1.3,0.3,1.9c0,0.1,0.1,0,0.1,0
					c0-0.5-0.1-1-0.2-1.4c0-0.3-0.1-0.6-0.1-0.9c0-0.1,0-0.3,0-0.4c0-0.2,0-0.5,0.2-0.7C26,73.6,26.1,73.5,26.1,73.5L26.1,73.5z"/>
			</g>
		</g>
		<g>
			<g>
				<path class="st3" d="M35.6,72.6c-0.2-0.3-0.4,0-0.5,0.3c-0.1,0.3,0,0.8,0.1,1.1c0.1,0.5,0.1,1,0.3,1.4c0,0.1,0.1,0,0.1,0
					c0-0.4-0.1-0.8-0.2-1.2c0-0.2-0.1-0.5-0.1-0.7c0-0.1,0-0.2,0-0.3c0-0.2,0.1-0.4,0.3-0.5C35.5,72.7,35.6,72.6,35.6,72.6
					L35.6,72.6z"/>
			</g>
		</g>
		<g>
			<g>
				<path class="st3" d="M43.5,66.9c-0.3-0.3-0.5,0.1-0.5,0.4c-0.1,0.4,0,0.8,0.1,1.1c0,0.4,0.1,0.8,0.2,1.3c0,0.1,0.1,0,0.1,0
					c0-0.4-0.1-0.9-0.1-1.3c0-0.2,0-0.4-0.1-0.6c0-0.1,0-0.2,0-0.3c-0.1-0.3,0-0.4,0.3-0.5C43.4,67,43.5,66.9,43.5,66.9L43.5,66.9z"
					/>
			</g>
		</g>
		<g>
			<g>
				<path class="st3" d="M39.6,69.3c-0.3-0.4-0.5,0.2-0.5,0.4c-0.1,0.4,0,0.8,0.1,1.1c0,0.4,0.1,0.8,0.2,1.3c0,0.1,0.1,0,0.1,0
					c0-0.4-0.1-0.9-0.1-1.3c0-0.2,0-0.4-0.1-0.6c0-0.1,0-0.2,0-0.3c-0.1-0.2,0-0.4,0.3-0.5C39.6,69.5,39.7,69.4,39.6,69.3L39.6,69.3
					z"/>
			</g>
		</g>
		<g>
			<g>
				<path class="st3" d="M51.4,62.1c-0.2-0.2-0.4,0-0.4,0.2c-0.1,0.3,0,0.6,0,0.9c0,0.4,0,0.7,0.1,1.1c0,0.1,0.1,0,0.1,0
					c0-0.3,0-0.6,0-0.9c0-0.1,0-0.2,0-0.4c0-0.1,0-0.2,0-0.3c0-0.2,0.1-0.4,0.2-0.5C51.3,62.3,51.4,62.2,51.4,62.1L51.4,62.1z"/>
			</g>
		</g>
		<g>
			<g>
				<path class="st3" d="M47.9,64.3c-0.2-0.2-0.4,0-0.4,0.2c-0.1,0.3,0,0.6,0,0.9c0,0.4,0,0.7,0.1,1.1c0,0.1,0.1,0,0.1,0
					c0-0.3,0-0.6,0-0.9c0-0.1,0-0.2,0-0.4c0-0.1,0-0.2,0-0.3c0-0.2,0.1-0.4,0.2-0.5C47.8,64.5,47.9,64.4,47.9,64.3L47.9,64.3z"/>
			</g>
		</g>
		<g>
			<g>
				<path class="st3" d="M29.8,79.6c-0.2-0.3-0.4,0-0.5,0.3c-0.1,0.4,0,0.8,0.1,1.2c0.1,0.6,0.1,1.3,0.3,1.9c0,0.1,0.1,0,0.1,0
					c0-0.5-0.1-1-0.2-1.4c0-0.3-0.1-0.6-0.1-0.9c0-0.1,0-0.3,0-0.4c0-0.2,0-0.5,0.2-0.7C29.7,79.8,29.9,79.7,29.8,79.6L29.8,79.6z"
					/>
			</g>
		</g>
		<g>
			<g>
				<path class="st3" d="M32.6,75.7c-0.2-0.3-0.4,0-0.5,0.3c-0.1,0.4,0,0.8,0.1,1.2c0.1,0.6,0.1,1.3,0.3,1.9c0,0.1,0.1,0,0.1,0
					c0-0.5-0.1-1-0.2-1.4c0-0.3-0.1-0.6-0.1-0.9c0-0.1,0-0.3,0-0.4c0-0.2,0-0.5,0.2-0.7C32.5,75.9,32.6,75.8,32.6,75.7L32.6,75.7z"
					/>
			</g>
		</g>
		<g>
			<g>
				<path class="st3" d="M42,75.8c-0.2-0.3-0.4,0-0.5,0.3c-0.1,0.3,0,0.8,0.1,1.1c0.1,0.5,0.1,1,0.3,1.4c0,0.1,0.1,0,0.1,0
					c0-0.4-0.1-0.8-0.2-1.2c0-0.2-0.1-0.5-0.1-0.7c0-0.1,0-0.2,0-0.3c0-0.2,0.1-0.4,0.3-0.5C42,75.9,42.1,75.8,42,75.8L42,75.8z"/>
			</g>
		</g>
		<g>
			<g>
				<path class="st3" d="M49.9,70c-0.3-0.3-0.5,0.1-0.5,0.4c-0.1,0.4,0,0.8,0.1,1.1c0,0.4,0.1,0.8,0.2,1.3c0,0.1,0.1,0,0.1,0
					c0-0.4-0.1-0.9-0.1-1.3c0-0.2,0-0.4-0.1-0.6c0-0.1,0-0.2,0-0.3c-0.1-0.3,0-0.4,0.3-0.5C49.8,70.2,49.9,70.1,49.9,70L49.9,70z"/>
			</g>
		</g>
		<g>
			<g>
				<path class="st3" d="M46,72.5c-0.3-0.4-0.5,0.2-0.5,0.4c-0.1,0.4,0,0.8,0.1,1.1c0,0.4,0.1,0.8,0.2,1.3c0,0.1,0.1,0,0.1,0
					c0-0.4-0.1-0.9-0.1-1.3c0-0.2,0-0.4-0.1-0.6c0-0.1,0-0.2,0-0.3c-0.1-0.2,0-0.4,0.3-0.5C46,72.7,46.1,72.6,46,72.5L46,72.5z"/>
			</g>
		</g>
		<g>
			<g>
				<path class="st3" d="M56.4,66.6c-0.2-0.2-0.4,0-0.4,0.2c-0.1,0.3,0,0.6,0,0.9c0,0.4,0,0.7,0.1,1.1c0,0.1,0.1,0,0.1,0
					c0-0.3,0-0.6,0-0.9c0-0.1,0-0.2,0-0.4c0-0.1,0-0.2,0-0.3c0-0.2,0.1-0.4,0.2-0.5C56.4,66.8,56.5,66.7,56.4,66.6L56.4,66.6z"/>
			</g>
		</g>
		<g>
			<g>
				<path class="st3" d="M36.2,82.8c-0.2-0.3-0.4,0-0.5,0.3c-0.1,0.4,0,0.8,0.1,1.2c0.1,0.6,0.1,1.3,0.3,1.9c0,0.1,0.1,0,0.1,0
					c0-0.5-0.1-1-0.2-1.4c0-0.3-0.1-0.6-0.1-0.9c0-0.1,0-0.3,0-0.4c0-0.2,0-0.5,0.2-0.7C36.2,83,36.3,82.9,36.2,82.8L36.2,82.8z"/>
			</g>
		</g>
		<g>
			<g>
				<path class="st3" d="M39,78.9c-0.2-0.3-0.4,0-0.5,0.3c-0.1,0.4,0,0.8,0.1,1.2c0.1,0.6,0.1,1.3,0.3,1.9c0,0.1,0.1,0,0.1,0
					c0-0.5-0.1-1-0.2-1.4c0-0.3-0.1-0.6-0.1-0.9c0-0.1,0-0.3,0-0.4c0-0.2,0-0.5,0.2-0.7C38.9,79,39,79,39,78.9L39,78.9z"/>
			</g>
		</g>
		<g>
			<g>
				<path class="st3" d="M53.8,80.1c-0.2-0.3-0.4,0-0.5,0.3c-0.1,0.3,0,0.8,0.1,1.1c0.1,0.5,0.1,1,0.3,1.4c0,0.1,0.1,0,0.1,0
					c0-0.4-0.1-0.8-0.2-1.2c0-0.2-0.1-0.5-0.1-0.7c0-0.1,0-0.2,0-0.3c0-0.2,0.1-0.4,0.3-0.5C53.7,80.2,53.8,80.1,53.8,80.1
					L53.8,80.1z"/>
			</g>
		</g>
		<g>
			<g>
				<path class="st3" d="M61.6,74.4c-0.3-0.3-0.5,0.1-0.5,0.4c-0.1,0.4,0,0.8,0.1,1.1c0,0.4,0.1,0.8,0.2,1.3c0,0.1,0.1,0,0.1,0
					c0-0.4-0.1-0.9-0.1-1.3c0-0.2,0-0.4-0.1-0.6c0-0.1,0-0.2,0-0.3c-0.1-0.3,0-0.4,0.3-0.5C61.6,74.5,61.7,74.4,61.6,74.4L61.6,74.4
					z"/>
			</g>
		</g>
		<g>
			<g>
				<path class="st3" d="M57.8,76.8c-0.3-0.4-0.5,0.2-0.5,0.4c-0.1,0.4,0,0.8,0.1,1.1c0,0.4,0.1,0.8,0.2,1.3c0,0.1,0.1,0,0.1,0
					c0-0.4-0.1-0.9-0.1-1.3c0-0.2,0-0.4-0.1-0.6c0-0.1,0-0.2,0-0.3c-0.1-0.2,0-0.4,0.3-0.5C57.7,77,57.8,76.9,57.8,76.8L57.8,76.8z"
					/>
			</g>
		</g>
		<g>
			<g>
				<path class="st3" d="M69.1,69.8c-0.2-0.2-0.3-0.1-0.4,0.2c-0.1,0.2,0,0.6,0,0.8c0,0.3,0,0.7,0.1,1c0,0.1,0.1,0,0.1,0
					c0-0.3,0-0.6-0.1-0.9c0-0.1,0-0.2,0-0.4c0-0.1,0-0.8,0.2-0.6C69.1,70,69.2,69.9,69.1,69.8L69.1,69.8z"/>
			</g>
		</g>
		<g>
			<g>
				<path class="st3" d="M65.5,71.8c-0.2-0.2-0.4,0-0.4,0.2c-0.1,0.3,0,0.6,0,0.9c0,0.4,0,0.7,0.1,1.1c0,0.1,0.1,0,0.1,0
					c0-0.3,0-0.6,0-0.9c0-0.1,0-0.2,0-0.4c0-0.1,0-0.2,0-0.3c0-0.2,0.1-0.4,0.2-0.5C65.5,72,65.6,71.9,65.5,71.8L65.5,71.8z"/>
			</g>
		</g>
		<g>
			<g>
				<path class="st3" d="M48,87.1c-0.2-0.3-0.4,0-0.5,0.3c-0.1,0.4,0,0.8,0.1,1.2c0.1,0.6,0.1,1.3,0.3,1.9c0,0.1,0.1,0,0.1,0
					c0-0.5-0.1-1-0.2-1.4c0-0.3-0.1-0.6-0.1-0.9c0-0.1,0-0.3,0-0.4c0-0.2,0-0.5,0.2-0.7C47.9,87.3,48,87.2,48,87.1L48,87.1z"/>
			</g>
		</g>
		<g>
			<g>
				<path class="st3" d="M50.7,83.2c-0.2-0.3-0.4,0-0.5,0.3c-0.1,0.4,0,0.8,0.1,1.2c0.1,0.6,0.1,1.3,0.3,1.9c0,0.1,0.1,0,0.1,0
					c0-0.5-0.1-1-0.2-1.4c0-0.3-0.1-0.6-0.1-0.9c0-0.1,0-0.3,0-0.4c0-0.2,0-0.5,0.2-0.7C50.7,83.3,50.8,83.3,50.7,83.2L50.7,83.2z"
					/>
			</g>
		</g>
		<g>
			<g>
				<path class="st3" d="M53.7,68.1c-0.2-0.3-0.3,0-0.4,0.2c-0.1,0.4,0,0.8,0,1.1c0,0.4,0.1,0.9,0.2,1.3c0,0.1,0.1,0,0.1,0
					c0-0.4-0.1-0.9-0.1-1.3c0-0.2,0-0.4-0.1-0.5c0-0.1,0-0.2,0-0.3c0-0.2,0-0.3,0.1-0.5C53.6,68.2,53.7,68.2,53.7,68.1L53.7,68.1z"
					/>
			</g>
		</g>
		<g>
			<g>
				<path class="st3" d="M72.7,67.6c-0.2-0.2-0.4-0.1-0.5,0.2c-0.1,0.2,0,0.5,0,0.7c0.1,0.4,0.1,0.8,0.3,1.2c0,0.1,0.1,0.1,0.1,0
					c0-0.2-0.1-0.5-0.1-0.7c0-0.1,0-0.2-0.1-0.3c0-0.1,0-0.2-0.1-0.3c-0.1-0.2,0-0.4,0.3-0.6C72.7,67.8,72.8,67.7,72.7,67.6
					L72.7,67.6z"/>
			</g>
		</g>
		<g>
			<g>
				<path class="st3" d="M59.4,64.6c-0.3-0.3-0.5,0.1-0.6,0.3c-0.1,0.3,0,0.7,0,1c0,0.4,0,0.7,0.1,1.1c0,0.1,0.1,0,0.1,0
					c0-0.4,0-0.7-0.1-1.1c0-0.2,0-0.3,0-0.5c0-0.1,0-1,0.3-0.7C59.4,64.7,59.5,64.6,59.4,64.6L59.4,64.6z"/>
			</g>
		</g>
		<g>
			<g>
				<path class="st3" d="M62.4,62.8c-0.2-0.2-0.4-0.1-0.5,0.2c-0.1,0.2,0,0.4,0,0.6c0.1,0.4,0.1,0.8,0.2,1.2c0,0.1,0.1,0,0.1,0
					c0-0.2-0.1-0.5-0.1-0.7c0-0.1,0-0.3-0.1-0.4c0,0-0.1-1.1,0.2-0.8C62.4,62.9,62.5,62.8,62.4,62.8L62.4,62.8z"/>
			</g>
		</g>
		<g>
			<g>
				<path class="st3" d="M67.7,65c-0.2-0.2-0.4,0-0.4,0.2c-0.1,0.3,0,0.6,0,0.9c0,0.4,0,0.7,0.1,1.1c0,0.1,0.1,0,0.1,0
					c0-0.3,0-0.6,0-0.9c0-0.1,0-0.2,0-0.4c0-0.1,0-0.2,0-0.3c0-0.2,0.1-0.4,0.2-0.5C67.7,65.1,67.8,65,67.7,65L67.7,65z"/>
			</g>
		</g>
		<g>
			<g>
				<path class="st3" d="M35,60.2c-0.3-0.3-0.5,0.1-0.5,0.4c-0.1,0.4,0,0.8,0.1,1.1c0,0.4,0.1,0.8,0.2,1.3c0,0.1,0.1,0,0.1,0
					c0-0.4-0.1-0.9-0.1-1.3c0-0.2,0-0.4-0.1-0.6c0-0.1,0-0.2,0-0.3c-0.1-0.3,0-0.4,0.3-0.5C35,60.4,35.1,60.3,35,60.2L35,60.2z"/>
			</g>
		</g>
		<g>
			<g>
				<path class="st3" d="M38.7,58.3c-0.2-0.2-0.4,0-0.4,0.2c-0.1,0.3,0,0.6,0,0.9c0,0.4,0,0.7,0.1,1.1c0,0.1,0.1,0,0.1,0
					c0-0.3,0-0.6,0-0.9c0-0.1,0-0.2,0-0.4c0-0.1,0-0.2,0-0.3c0-0.2,0.1-0.4,0.2-0.5C38.6,58.4,38.7,58.3,38.7,58.3L38.7,58.3z"/>
			</g>
		</g>
		<g>
			<g>
				<path class="st3" d="M30.4,57c-0.3-0.3-0.5,0.1-0.5,0.4c-0.1,0.4,0,0.8,0.1,1.1c0,0.4,0.1,0.8,0.2,1.3c0,0.1,0.1,0,0.1,0
					c0-0.4-0.1-0.9-0.1-1.3c0-0.2,0-0.4-0.1-0.6c0-0.1,0-0.2,0-0.3c-0.1-0.3,0-0.4,0.3-0.5C30.3,57.2,30.4,57.1,30.4,57L30.4,57z"/>
			</g>
		</g>
		<g>
			<g>
				<path class="st3" d="M34,55c-0.2-0.2-0.4,0-0.4,0.2c-0.1,0.3,0,0.6,0,0.9c0,0.4,0,0.7,0.1,1.1c0,0.1,0.1,0,0.1,0
					c0-0.3,0-0.6,0-0.9c0-0.1,0-0.2,0-0.4c0-0.1,0-0.2,0-0.3c0-0.2,0.1-0.4,0.2-0.5C33.9,55.2,34,55.1,34,55L34,55z"/>
			</g>
		</g>
		<g>
			<g>
				<path class="st3" d="M41.2,56.7c-0.2-0.2-0.4,0-0.4,0.2c-0.1,0.3,0,0.6,0,0.9c0,0.4,0,0.7,0.1,1.1c0,0.1,0.1,0,0.1,0
					c0-0.3,0-0.6,0-0.9c0-0.1,0-0.2,0-0.4c0-0.1,0-0.2,0-0.3c0-0.2,0.1-0.4,0.2-0.5C41.2,56.9,41.3,56.8,41.2,56.7L41.2,56.7z"/>
			</g>
		</g>
		<g>
			<g>
				<path class="st1" d="M76.5,31.8C76.6,31.8,76.6,31.7,76.5,31.8C76.5,31.7,76.5,31.8,76.5,31.8L76.5,31.8z"/>
			</g>
		</g>
		<g>
			<g>
				<path class="st1" d="M29.7,14.6c15.6,6.6,31.6,12.4,47.6,18c0.3,0.1,0.5-0.4,0.1-0.5c-16-5.6-31.7-11.9-47.6-17.8
					C29.6,14.2,29.5,14.5,29.7,14.6L29.7,14.6z"/>
			</g>
		</g>
		<g>
			<g>
				<path class="st1" d="M46,54.3c-4.7-15.5-0.3-30.7,6.3-44.9c0.1-0.1-0.2-0.3-0.2-0.1C45.5,23.3,40.8,39,45.9,54.3
					C45.9,54.4,46,54.4,46,54.3L46,54.3z"/>
			</g>
		</g>
		<g>
			<g>
				<path class="st1" d="M39.1,52.1c-2-3.3-1.3-8.6-1.2-12.4c0.2-3.9,0.6-7.8,1.3-11.6c1.3-7.1,3.5-14,6.4-20.6
					c0.1-0.2-0.2-0.4-0.3-0.2c-3.4,7.8-5.8,15.9-7,24.3c-0.8,5.9-2.8,15.4,0.5,20.7C39,52.4,39.2,52.2,39.1,52.1L39.1,52.1z"/>
			</g>
		</g>
		<g>
			<g>
				<path class="st1" d="M32.9,49.1c-2.8-7.5-2-14.9-0.6-22.7c1.3-7.6,3.1-15,6.5-22c0.1-0.1-0.2-0.3-0.2-0.1
					c-3.8,7.8-5.6,16.1-7,24.6C30.5,35.7,29.8,42.8,32.9,49.1C32.9,49.2,32.9,49.1,32.9,49.1L32.9,49.1z"/>
			</g>
		</g>
		<g>
			<g>
				<path class="st0" d="M74.5,61.3c2.7,1.1,5.4,2.2,8,3.5c0.2,0.1,0.4-0.2,0.2-0.3c-2.7-1.3-5.4-2.4-8.1-3.3
					C74.4,61.1,74.4,61.3,74.5,61.3L74.5,61.3z"/>
			</g>
		</g>
	</g>
	<g>
		<g>
			<path class="st1" d="M59.4,81.5c7.6-5.8,14.4-10.7,24.1-12.3c0.3-0.1,0.2-0.6-0.1-0.6C73.6,69.9,66.7,75.3,59.4,81.5
				C59.3,81.5,59.3,81.5,59.4,81.5L59.4,81.5z"/>
		</g>
	</g>
</g>
</svg>
